<mxfile host="app.diagrams.net" modified="2023-09-13T08:27:59.546Z" agent="Mozilla/5.0 (Macintosh; Intel Mac OS X 10_15_7) AppleWebKit/537.36 (KHTML, like Gecko) Chrome/116.0.0.0 Safari/537.36" etag="OkTQK9Z9bLPQC2V92Y8N" version="21.7.2" type="github">
  <diagram name="페이지-1" id="pagDyQrYYU15JG_RIgml">
    <mxGraphModel dx="2074" dy="1008" grid="0" gridSize="10" guides="1" tooltips="1" connect="1" arrows="1" fold="1" page="1" pageScale="1" pageWidth="827" pageHeight="1169" math="0" shadow="0">
      <root>
        <mxCell id="0" />
        <mxCell id="1" parent="0" />
        <mxCell id="5FvPEEqMPcQxhuBh9iza-1" value="VPC" style="sketch=0;outlineConnect=0;gradientColor=none;html=1;whiteSpace=wrap;fontSize=12;fontStyle=0;shape=mxgraph.aws4.group;grIcon=mxgraph.aws4.group_vpc;strokeColor=#879196;fillColor=none;verticalAlign=top;align=left;spacingLeft=30;fontColor=#879196;dashed=0;" parent="1" vertex="1">
          <mxGeometry x="40" y="80" width="410" height="200" as="geometry" />
        </mxCell>
        <mxCell id="5FvPEEqMPcQxhuBh9iza-2" value="Subnet" style="points=[[0,0],[0.25,0],[0.5,0],[0.75,0],[1,0],[1,0.25],[1,0.5],[1,0.75],[1,1],[0.75,1],[0.5,1],[0.25,1],[0,1],[0,0.75],[0,0.5],[0,0.25]];outlineConnect=0;gradientColor=none;html=1;whiteSpace=wrap;fontSize=12;fontStyle=0;container=1;pointerEvents=0;collapsible=0;recursiveResize=0;shape=mxgraph.aws4.group;grIcon=mxgraph.aws4.group_security_group;grStroke=0;strokeColor=#147EBA;fillColor=#E6F2F8;verticalAlign=top;align=left;spacingLeft=30;fontColor=#147EBA;dashed=0;" parent="1" vertex="1">
          <mxGeometry x="80" y="120" width="340" height="120" as="geometry" />
        </mxCell>
        <mxCell id="5FvPEEqMPcQxhuBh9iza-7" value="MSK" style="sketch=0;points=[[0,0,0],[0.25,0,0],[0.5,0,0],[0.75,0,0],[1,0,0],[0,1,0],[0.25,1,0],[0.5,1,0],[0.75,1,0],[1,1,0],[0,0.25,0],[0,0.5,0],[0,0.75,0],[1,0.25,0],[1,0.5,0],[1,0.75,0]];outlineConnect=0;fontColor=#232F3E;gradientColor=#945DF2;gradientDirection=north;fillColor=#5A30B5;strokeColor=#ffffff;dashed=0;verticalLabelPosition=bottom;verticalAlign=top;align=center;html=1;fontSize=12;fontStyle=0;aspect=fixed;shape=mxgraph.aws4.resourceIcon;resIcon=mxgraph.aws4.managed_streaming_for_kafka;" parent="5FvPEEqMPcQxhuBh9iza-2" vertex="1">
          <mxGeometry x="200" y="35" width="50" height="50" as="geometry" />
        </mxCell>
        <mxCell id="5FvPEEqMPcQxhuBh9iza-20" value="Connet&lt;br style=&quot;border-color: var(--border-color); padding: 0px; margin: 0px;&quot;&gt;&lt;span style=&quot;background-color: rgb(255, 255, 255);&quot;&gt;(debezium)&lt;/span&gt;" style="text;html=1;strokeColor=none;fillColor=none;align=center;verticalAlign=middle;whiteSpace=wrap;rounded=0;" parent="5FvPEEqMPcQxhuBh9iza-2" vertex="1">
          <mxGeometry x="120" y="80" width="60" height="30" as="geometry" />
        </mxCell>
        <mxCell id="5FvPEEqMPcQxhuBh9iza-21" value="Connet&lt;br style=&quot;border-color: var(--border-color); padding: 0px; margin: 0px;&quot;&gt;&lt;span style=&quot;background-color: rgb(255, 255, 255);&quot;&gt;(confluent)&lt;/span&gt;" style="text;html=1;strokeColor=none;fillColor=none;align=center;verticalAlign=middle;whiteSpace=wrap;rounded=0;" parent="5FvPEEqMPcQxhuBh9iza-2" vertex="1">
          <mxGeometry x="270" y="80" width="60" height="30" as="geometry" />
        </mxCell>
        <mxCell id="5FvPEEqMPcQxhuBh9iza-14" style="edgeStyle=orthogonalEdgeStyle;rounded=0;orthogonalLoop=1;jettySize=auto;html=1;" parent="1" source="5FvPEEqMPcQxhuBh9iza-3" target="5FvPEEqMPcQxhuBh9iza-12" edge="1">
          <mxGeometry relative="1" as="geometry" />
        </mxCell>
        <mxCell id="5FvPEEqMPcQxhuBh9iza-3" value="MySQL" style="sketch=0;points=[[0,0,0],[0.25,0,0],[0.5,0,0],[0.75,0,0],[1,0,0],[0,1,0],[0.25,1,0],[0.5,1,0],[0.75,1,0],[1,1,0],[0,0.25,0],[0,0.5,0],[0,0.75,0],[1,0.25,0],[1,0.5,0],[1,0.75,0]];outlineConnect=0;fontColor=#232F3E;gradientColor=#F78E04;gradientDirection=north;fillColor=#D05C17;strokeColor=#ffffff;dashed=0;verticalLabelPosition=bottom;verticalAlign=top;align=center;html=1;fontSize=12;fontStyle=0;aspect=fixed;shape=mxgraph.aws4.resourceIcon;resIcon=mxgraph.aws4.ec2;" parent="1" vertex="1">
          <mxGeometry x="95" y="155" width="50" height="50" as="geometry" />
        </mxCell>
        <mxCell id="5FvPEEqMPcQxhuBh9iza-4" value="VPC" style="sketch=0;outlineConnect=0;gradientColor=none;html=1;whiteSpace=wrap;fontSize=12;fontStyle=0;shape=mxgraph.aws4.group;grIcon=mxgraph.aws4.group_vpc;strokeColor=#879196;fillColor=none;verticalAlign=top;align=left;spacingLeft=30;fontColor=#879196;dashed=0;" parent="1" vertex="1">
          <mxGeometry x="521" y="80" width="280" height="200" as="geometry" />
        </mxCell>
        <mxCell id="5FvPEEqMPcQxhuBh9iza-5" value="Subnet" style="points=[[0,0],[0.25,0],[0.5,0],[0.75,0],[1,0],[1,0.25],[1,0.5],[1,0.75],[1,1],[0.75,1],[0.5,1],[0.25,1],[0,1],[0,0.75],[0,0.5],[0,0.25]];outlineConnect=0;gradientColor=none;html=1;whiteSpace=wrap;fontSize=12;fontStyle=0;container=1;pointerEvents=0;collapsible=0;recursiveResize=0;shape=mxgraph.aws4.group;grIcon=mxgraph.aws4.group_security_group;grStroke=0;strokeColor=#147EBA;fillColor=#E6F2F8;verticalAlign=top;align=left;spacingLeft=30;fontColor=#147EBA;dashed=0;" parent="1" vertex="1">
          <mxGeometry x="561" y="120" width="200" height="120" as="geometry" />
        </mxCell>
        <mxCell id="5FvPEEqMPcQxhuBh9iza-6" value="Oracle" style="sketch=0;points=[[0,0,0],[0.25,0,0],[0.5,0,0],[0.75,0,0],[1,0,0],[0,1,0],[0.25,1,0],[0.5,1,0],[0.75,1,0],[1,1,0],[0,0.25,0],[0,0.5,0],[0,0.75,0],[1,0.25,0],[1,0.5,0],[1,0.75,0]];outlineConnect=0;fontColor=#232F3E;gradientColor=#F78E04;gradientDirection=north;fillColor=#D05C17;strokeColor=#ffffff;dashed=0;verticalLabelPosition=bottom;verticalAlign=top;align=center;html=1;fontSize=12;fontStyle=0;aspect=fixed;shape=mxgraph.aws4.resourceIcon;resIcon=mxgraph.aws4.ec2;" parent="1" vertex="1">
          <mxGeometry x="613" y="155" width="50" height="50" as="geometry" />
        </mxCell>
        <mxCell id="5FvPEEqMPcQxhuBh9iza-15" style="edgeStyle=orthogonalEdgeStyle;rounded=0;orthogonalLoop=1;jettySize=auto;html=1;entryX=0;entryY=0.5;entryDx=0;entryDy=0;entryPerimeter=0;" parent="1" source="5FvPEEqMPcQxhuBh9iza-12" target="5FvPEEqMPcQxhuBh9iza-7" edge="1">
          <mxGeometry relative="1" as="geometry" />
        </mxCell>
        <mxCell id="5FvPEEqMPcQxhuBh9iza-12" value="" style="shape=image;verticalLabelPosition=bottom;labelBackgroundColor=default;verticalAlign=top;aspect=fixed;imageAspect=0;image=data:image/png,iVBORw0KGgoAAAANSUhEUgAAAEoAAABKCAYAAAAc0MJxAAAAAXNSR0IArs4c6QAAAIRlWElmTU0AKgAAAAgABQESAAMAAAABAAEAAAEaAAUAAAABAAAASgEbAAUAAAABAAAAUgEoAAMAAAABAAIAAIdpAAQAAAABAAAAWgAAAAAAAACQAAAAAQAAAJAAAAABAAOgAQADAAAAAQABAACgAgAEAAAAAQAAAEqgAwAEAAAAAQAAAEoAAAAALPVk3QAAAAlwSFlzAAAWJQAAFiUBSVIk8AAADupJREFUeAHtmwtwlNUVx8+3mwBJAC2tSsFHLaij+Ooooi1apUgIjzCjOLZTB6qoVaeKKAlvWB4CSXBQtNpalVGwTqtOJbwCRLA+C5TxNcoUg0AVWq2KYBIIIbn9nS97N99udje7G7KLM7nDcl/nnHvO/57v3vPd+0WkI3Ug0IFABwIdCHznEXCOFwsCI01ujiOD/SJnqU4NIh8fMlIZWOnUHg86ZhyoG8T4BxTKFCNS7DjSzQuKMfItCpZuLpcFL4gDdplLGQUq0M906tpXyjE/vxUI1lVXSWHgQ+dIK3Tt1u1rN8kJCM7rIw9CFgIJD/qosVEW60/LHhH5QVpPU3qLGfOo0hHmLJ9ftmMuy5IIwASKymWOiMNT6LY4ZYUyi8dxVlNdGhob5NziVc7HwXpas4x5lOOTX2KpBWltUbkzuxkkxcAxtAUAcG0QEX+QJ1hNb5YxoMSRi6ypgLHMllvkRpaH2jw8obY0FTIHlJG8kI2O7A+VIwrGka9DTV6eUGN6ChkDirXnM2siC2V/W47MvX1enki69q5nDKhGI+tDxjkyft4Qc1qoHiy4bfTZ9jAe25imPGO73u2XmOyzexMCONI3aOun7GpFtQ1Ni3euXwrYFcvoawLQSNWOvXLeE9uc+jRhEzZMxoBSLcpGmCvYyTYBVucwrSIrRuqONsigyaudtyK70lXP2KOnBjb6ZA9ZXQLG1jl+2Z0AXbuRZBQoBn8Yb+qu1hFl7iFM2EqxOvjbom3apzQurVvJzH8Ze/TKCs1wdrFVrtlGDAv1NcUrnb97YVhUaK6i/ipAuXoC5AiC0NVemnSVM+JRZUNMHqb/3mPk0kiQtG9iufMa2dIQHTwub6ghfYWMAGW6yGxc5Aw1Ey/5X3WdFMUyWfuURvtdnhwJxKJtz/Z2ASpwtcmacIXJiaZ46TBzMQaHYiNege8PrHOao+8IJu1TmlCzkXtVRqjuKeiYOran6ZgV3Wf/WEgrKTCnOlkylO1+KPIGI3j2xBXOYq/sgBhf11HyNm2XaTuespE15xdemljlRaNMJX2Wdkv1CrkiIE6jlx6aCdRnIreS3aGijt/0Vc5eL02q5ZTR10O3nDPlSoJCBWYowJwfpoSRAuphQOUVyl20uSBhSJ1plDvCeOJUCEbvZBLeZwPoojJcWeXyqJeFXVL1OBGa0Tyno5UQ8D4AuAoFruYTeSPVw7+kPGrBcPPjbPUYRwpQ6hoUan6xRSkU2o/ASqa5gv6KSeXOPmtISaHpxZnKdnibwgEjM/GmubY/kZydcgZjznFpjRzkbPhc7xjzRpjenXySjw4F0A2G7kSvXPSrYfyN5Gt5nCuKVjq7vP3xygkBxTZ9B4bfx+Duwb8VSFsjM7WNekVDg1RsWy2bY51tl40yLzLY9coL3/aaKrk42dlVL87rK+8i59ygnJeKVjijtRyZ9Cy+f6FcTrt6mf4uASSysLQDZRazu/4hrDVKJZIxCgmn+4XmFp8jT4V1GnmnvkFGT1ntfBLWHqVSOtKM8PlkpdtFzER+dXDrj0IdvykytuLYeCShRVM8Foe1tMD0cTqJTlbYRsDjfyueFW5bFDkJARUoMN3zsuVzPEof+1DC4q9w49JaI4/GulZy454u8hG8p7uMRp4GpHEhISkUAOspfOMWZUWHPXJI+hWtd2qiidJrsFxHfsf4xRj7fS8Nuh9uqJWekyudA972aOWEwoPAWucgA62IFKAD42klXR35BK8bz9YcBqTSN3aRE8iqtIxicWMmpUkkeWMrkNoZHCOMVXVRnVQ31TESpCBxeSIgKW1CHqWE3scHg6fCOQ7mPtoXSkb2spA/ULVXnow8DikdZcYwK7WEDC+G6NtQYDcbzVi5xSucZ71idB3L7SPjGGsaOvb29uF9OwH2KSZ9vrYn+tgqbcJAaSCX1132MchJDFBU+608RP1mZEynremxUolNaTfvbnNrD8qzgVedo7axPXPVL7e7jEGXmRh1hncsJvbf1OfVHJSlud3kXtbLMgD7kvOtXpET6uXzlhMGSpmYxSVkdzPw+2ztF2mbO4N95Ta226ko2UvbQonDNrbwwKFyeT4yOAzRtLEQIIjNKZRf+RmHae/rFYee+zhzn19bJX+yOywhxnvoeSF9j2LD3V76eOWkgCoZYS7z+2WzCmSgixjofStc1wQ87C6UnYTQk227S0s4AP2s4nLhsQPSY5KMU1ooozF6NuO54YIVywBf4DEleNBjePRh2w5IF0L/ntYJZwZMWuVssX2t5UkBpcLwqn+RnY0yi4hhWrzMBne5e1BoInQ9lCeUjLyHh80kSNRr9JQTwWshHjSHSXG92iPoayZkkRyWJdF2QWK5MgxWvXawVp7j4Wu1mDxQhWY6Cs5FoX015XJarEcqGFJMgHYCg+jOF0rwbm1wZMbkFc66UGMChYWjTL6ftY9J6O8lZ9IO4EGLa+plse7Q3j5b1keU155P4e3F+Em/FSQNVNlIcyaD7QQAfYauxav0ZTVm4rXne1l+KYJH14OuXkIUfpOdawYetsnbHlnGg65hF1OAfhbRV42MRzhPLyPw3R/RF1bFm/RFfQOAGnj6JPP6ooKSBkqZCPheh3MgAz7LOjVW2zQRtyzCoG5E7JMjFZ9fYE7KzpbJGHsnpDkuQ/A/5GxkzZgReXmwcLj5KWuiAjTIS0/5EDyP19fLwqlrHfesyvbrxGT7ZSGL+EHv0sD69AxyxgDUGwS8V1r6RPNUTw+W4U0XMEjoHGlBofkJgd29tPlRdNTCkeayySsd3ZbdFDTo/gfyzaJOnd047HZmqZN2KhBZWTIIYyrUw7Qt6EFDtWwTYx7B0CeO1Mn8aeuc/9h2mzPm6VmObGEST0F2A+dWzxWvcd7Vfur74T9AvszSJ5PDl3zSHe6rHDGPrHXcG5Tg8/8PDHbXDma7Ek+7Np5kvdzs3MUF5Wb44k4Y8jQWW1p3WOZOX+98Gk8uYG9A3mClgW8r6+jldh1VvbXduxNqPZGUElCRgona7yaIW6LtKHcYqy6YUu5URdJFq+vRDWvYTIy7iX42s7DUgLzlrEFzEnn5Vk48uy+of4A8FxSC43t4aX4kTGoKlTYDpWdAnX2yHcW66fi493TWhgeS1YUF+xxQelLXPpeXtYRQ4lYWeg1Hkkos3NMwbJ7LxLnV4UY5r60nnSwFbUuAtMQDkp4zlaUiUQEB5Fcsr5ZTAUn5VQf49SM1XZy6q45uuQ3/tQkorsRHAtJ17vi67R6V39pXhTbo1GZW1UF10VBAhamOqmtbBKcMlBuB+zxn1hzsFa92Xm+LMseS19XFe9iIrm25E0wZKJbKOcyUe2rAtH1RfVgmHUtDj4Us1Ul1U1muruicqtyUgNKYiYHH20E5Urkv3t2cpUt3rjqpbnZc1Vl1t/Vk8rjxiwp6oNCcAtFgn5FTmZ1a3lv+SbMuju5WzvZdyaL7nNIej0l1I7b6DSANRj8/tvyR9Wo8kful7Iy5jXz5RzhTOa3c+Tye/jGB4qz5B3kO34ET3yDQp6Et/8JSMGbSV5LjOgHEnVmmKbYCsP5M8VvWFp1tHqtGwFxWY2QiZ/9fRjMm6qO3aJg5A5C2IHSMC1I0Tm1zZEOigWUsEelod3VE11hjqY3YOlZtVtuj0bUASu/DTLa8DOOZlgHP2chjV6LvWXZx1D4GGKln15bueM15Wb9BdbX6uTY02VKittl2tVltVwxsm81bPHpcGo5FqHv3pY8W917X89cCaywD70v3550gf4FmmLZBU4rgv8W6+LR8mcrVaF7WS+34gLSm5oDcyPtetW3jryiGcV3/EkB1UdsVgxfK5Wnbr3kLoCD8tSVA6CwvSNquAwDWjYC1E9qTdRb466jbLhX35NOyJpw3HpFdUyqc3fEY9AyMRfdH8Whi9eEaepLp8qonRYKkfGojXjcLe0q0Tq4YxAcKqtDxan1d9CMJBYvFbwW0t6lg8sdb+Krb0fp/vk4yG6pAXErWD3/z38TEJY3XyY79steTvLSAuJy6C5QXA0vTYo1iHQp9eAFQsU8NvX9RYKUd5zkhQUx7Dh1sPlvzYmBNivbofUZnXyXIzXPPl163xGG5oQ8fdROXBuShQ7xga0IZIna1RujSGD6zTi31CHmI6hwjBW11exlPMQhLLYAC9fUQukDx7dN8PpwfFHlJ6C5+zcezDZze5bcWsIWNmmSFo9tnYNFf0kkD5s4ie2H0s54OUt0j11394wA+z15ghSsGtmzzFkBxDv1wdpbcjtAsZmLgWb1lU2lPM6W2RrbmdJcegKgB6GwrgF1veXuCZMdJNVfdWE+XY89YlaG7my7cuibp46aepCDR715cYM9RdvqHIsdrsUZNXePsAIjJllAF+LLkta4nyCEW1L3uBw/NX7XsrqlrfpeyPK3lC0eY0IbRGm1kfyq8QR13qyzs6aI2qC1qk9pmQXL7sR2P+1jL3tQCKO3E1R9kQZuo6HqJw8p8H3W0UX6e7Muw3tRw9LuNm5ymc6wwofErHDlfr7wqIz5leK+rY71cjU3vhPc011xbsdm1vbk5VIoKlPYqQ/1R6YeLPsYAVfz0IuEb8k28kY/jA4cB3luWkMQ4Bf1ql9nUqyI/68DzetcWhzysy72X88mflRePHxjrq+MwJk9l4hpnj+qsuqsNdKktdfyq1EYet/NigaRiGDO9KZBvenTtLK8xcj9GrkbJwZyxb1YtWEsCPAaztMwMz+YmJ6BlQBqAQa/Ql0f+Id9HXZWsJ6uctqSYHtUWofF41UAuDYYAxC7o+M5L1nAfp6BFTWXDzflKoyApj/KmGyRVLO0eZdFwv6nMljcAoCcA7MNTBqLNWK9H0fYMu9Sb8PwQmv+aehlYvNbZaWWkM0+7R1njggbnU/8GcHpxKLQBoHrafi3TXkldQdrfcFSGZAok1SljHmUBCX5foLe7ubbNmwNSDR9pX1u0ynnb257ucsY8yhqqH2bwCZCGCvW2zeYs9EcA6rpMg6T6ZBwoVUK/k2J7vglgGrWuScuAdBPX4S1eJ5oo0vv/cQGUmsz3Sn/lGKT5/N3IHcXlzgvpheM7NBqHdJOIvIu/Qyp3qNqBQAcCHQhkHIH/AwxOZthbi6SjAAAAAElFTkSuQmCC;" parent="1" vertex="1">
          <mxGeometry x="206" y="158" width="44" height="44" as="geometry" />
        </mxCell>
        <mxCell id="5FvPEEqMPcQxhuBh9iza-17" style="edgeStyle=orthogonalEdgeStyle;rounded=0;orthogonalLoop=1;jettySize=auto;html=1;" parent="1" source="5FvPEEqMPcQxhuBh9iza-13" target="5FvPEEqMPcQxhuBh9iza-6" edge="1">
          <mxGeometry relative="1" as="geometry" />
        </mxCell>
        <mxCell id="5FvPEEqMPcQxhuBh9iza-13" value="" style="shape=image;verticalLabelPosition=bottom;labelBackgroundColor=default;verticalAlign=top;aspect=fixed;imageAspect=0;image=data:image/png,iVBORw0KGgoAAAANSUhEUgAAAEoAAABKCAYAAAAc0MJxAAAAAXNSR0IArs4c6QAAAIRlWElmTU0AKgAAAAgABQESAAMAAAABAAEAAAEaAAUAAAABAAAASgEbAAUAAAABAAAAUgEoAAMAAAABAAIAAIdpAAQAAAABAAAAWgAAAAAAAACQAAAAAQAAAJAAAAABAAOgAQADAAAAAQABAACgAgAEAAAAAQAAAEqgAwAEAAAAAQAAAEoAAAAALPVk3QAAAAlwSFlzAAAWJQAAFiUBSVIk8AAADupJREFUeAHtmwtwlNUVx8+3mwBJAC2tSsFHLaij+Ooooi1apUgIjzCjOLZTB6qoVaeKKAlvWB4CSXBQtNpalVGwTqtOJbwCRLA+C5TxNcoUg0AVWq2KYBIIIbn9nS97N99udje7G7KLM7nDcl/nnHvO/57v3vPd+0WkI3Ug0IFABwIdCHznEXCOFwsCI01ujiOD/SJnqU4NIh8fMlIZWOnUHg86ZhyoG8T4BxTKFCNS7DjSzQuKMfItCpZuLpcFL4gDdplLGQUq0M906tpXyjE/vxUI1lVXSWHgQ+dIK3Tt1u1rN8kJCM7rIw9CFgIJD/qosVEW60/LHhH5QVpPU3qLGfOo0hHmLJ9ftmMuy5IIwASKymWOiMNT6LY4ZYUyi8dxVlNdGhob5NziVc7HwXpas4x5lOOTX2KpBWltUbkzuxkkxcAxtAUAcG0QEX+QJ1hNb5YxoMSRi6ypgLHMllvkRpaH2jw8obY0FTIHlJG8kI2O7A+VIwrGka9DTV6eUGN6ChkDirXnM2siC2V/W47MvX1enki69q5nDKhGI+tDxjkyft4Qc1qoHiy4bfTZ9jAe25imPGO73u2XmOyzexMCONI3aOun7GpFtQ1Ni3euXwrYFcvoawLQSNWOvXLeE9uc+jRhEzZMxoBSLcpGmCvYyTYBVucwrSIrRuqONsigyaudtyK70lXP2KOnBjb6ZA9ZXQLG1jl+2Z0AXbuRZBQoBn8Yb+qu1hFl7iFM2EqxOvjbom3apzQurVvJzH8Ze/TKCs1wdrFVrtlGDAv1NcUrnb97YVhUaK6i/ipAuXoC5AiC0NVemnSVM+JRZUNMHqb/3mPk0kiQtG9iufMa2dIQHTwub6ghfYWMAGW6yGxc5Aw1Ey/5X3WdFMUyWfuURvtdnhwJxKJtz/Z2ASpwtcmacIXJiaZ46TBzMQaHYiNege8PrHOao+8IJu1TmlCzkXtVRqjuKeiYOran6ZgV3Wf/WEgrKTCnOlkylO1+KPIGI3j2xBXOYq/sgBhf11HyNm2XaTuespE15xdemljlRaNMJX2Wdkv1CrkiIE6jlx6aCdRnIreS3aGijt/0Vc5eL02q5ZTR10O3nDPlSoJCBWYowJwfpoSRAuphQOUVyl20uSBhSJ1plDvCeOJUCEbvZBLeZwPoojJcWeXyqJeFXVL1OBGa0Tyno5UQ8D4AuAoFruYTeSPVw7+kPGrBcPPjbPUYRwpQ6hoUan6xRSkU2o/ASqa5gv6KSeXOPmtISaHpxZnKdnibwgEjM/GmubY/kZydcgZjznFpjRzkbPhc7xjzRpjenXySjw4F0A2G7kSvXPSrYfyN5Gt5nCuKVjq7vP3xygkBxTZ9B4bfx+Duwb8VSFsjM7WNekVDg1RsWy2bY51tl40yLzLY9coL3/aaKrk42dlVL87rK+8i59ygnJeKVjijtRyZ9Cy+f6FcTrt6mf4uASSysLQDZRazu/4hrDVKJZIxCgmn+4XmFp8jT4V1GnmnvkFGT1ntfBLWHqVSOtKM8PlkpdtFzER+dXDrj0IdvykytuLYeCShRVM8Foe1tMD0cTqJTlbYRsDjfyueFW5bFDkJARUoMN3zsuVzPEof+1DC4q9w49JaI4/GulZy454u8hG8p7uMRp4GpHEhISkUAOspfOMWZUWHPXJI+hWtd2qiidJrsFxHfsf4xRj7fS8Nuh9uqJWekyudA972aOWEwoPAWucgA62IFKAD42klXR35BK8bz9YcBqTSN3aRE8iqtIxicWMmpUkkeWMrkNoZHCOMVXVRnVQ31TESpCBxeSIgKW1CHqWE3scHg6fCOQ7mPtoXSkb2spA/ULVXnow8DikdZcYwK7WEDC+G6NtQYDcbzVi5xSucZ71idB3L7SPjGGsaOvb29uF9OwH2KSZ9vrYn+tgqbcJAaSCX1132MchJDFBU+608RP1mZEynremxUolNaTfvbnNrD8qzgVedo7axPXPVL7e7jEGXmRh1hncsJvbf1OfVHJSlud3kXtbLMgD7kvOtXpET6uXzlhMGSpmYxSVkdzPw+2ztF2mbO4N95Ta226ko2UvbQonDNrbwwKFyeT4yOAzRtLEQIIjNKZRf+RmHae/rFYee+zhzn19bJX+yOywhxnvoeSF9j2LD3V76eOWkgCoZYS7z+2WzCmSgixjofStc1wQ87C6UnYTQk227S0s4AP2s4nLhsQPSY5KMU1ooozF6NuO54YIVywBf4DEleNBjePRh2w5IF0L/ntYJZwZMWuVssX2t5UkBpcLwqn+RnY0yi4hhWrzMBne5e1BoInQ9lCeUjLyHh80kSNRr9JQTwWshHjSHSXG92iPoayZkkRyWJdF2QWK5MgxWvXawVp7j4Wu1mDxQhWY6Cs5FoX015XJarEcqGFJMgHYCg+jOF0rwbm1wZMbkFc66UGMChYWjTL6ftY9J6O8lZ9IO4EGLa+plse7Q3j5b1keU155P4e3F+Em/FSQNVNlIcyaD7QQAfYauxav0ZTVm4rXne1l+KYJH14OuXkIUfpOdawYetsnbHlnGg65hF1OAfhbRV42MRzhPLyPw3R/RF1bFm/RFfQOAGnj6JPP6ooKSBkqZCPheh3MgAz7LOjVW2zQRtyzCoG5E7JMjFZ9fYE7KzpbJGHsnpDkuQ/A/5GxkzZgReXmwcLj5KWuiAjTIS0/5EDyP19fLwqlrHfesyvbrxGT7ZSGL+EHv0sD69AxyxgDUGwS8V1r6RPNUTw+W4U0XMEjoHGlBofkJgd29tPlRdNTCkeayySsd3ZbdFDTo/gfyzaJOnd047HZmqZN2KhBZWTIIYyrUw7Qt6EFDtWwTYx7B0CeO1Mn8aeuc/9h2mzPm6VmObGEST0F2A+dWzxWvcd7Vfur74T9AvszSJ5PDl3zSHe6rHDGPrHXcG5Tg8/8PDHbXDma7Ek+7Np5kvdzs3MUF5Wb44k4Y8jQWW1p3WOZOX+98Gk8uYG9A3mClgW8r6+jldh1VvbXduxNqPZGUElCRgona7yaIW6LtKHcYqy6YUu5URdJFq+vRDWvYTIy7iX42s7DUgLzlrEFzEnn5Vk48uy+of4A8FxSC43t4aX4kTGoKlTYDpWdAnX2yHcW66fi493TWhgeS1YUF+xxQelLXPpeXtYRQ4lYWeg1Hkkos3NMwbJ7LxLnV4UY5r60nnSwFbUuAtMQDkp4zlaUiUQEB5Fcsr5ZTAUn5VQf49SM1XZy6q45uuQ3/tQkorsRHAtJ17vi67R6V39pXhTbo1GZW1UF10VBAhamOqmtbBKcMlBuB+zxn1hzsFa92Xm+LMseS19XFe9iIrm25E0wZKJbKOcyUe2rAtH1RfVgmHUtDj4Us1Ul1U1muruicqtyUgNKYiYHH20E5Urkv3t2cpUt3rjqpbnZc1Vl1t/Vk8rjxiwp6oNCcAtFgn5FTmZ1a3lv+SbMuju5WzvZdyaL7nNIej0l1I7b6DSANRj8/tvyR9Wo8kful7Iy5jXz5RzhTOa3c+Tye/jGB4qz5B3kO34ET3yDQp6Et/8JSMGbSV5LjOgHEnVmmKbYCsP5M8VvWFp1tHqtGwFxWY2QiZ/9fRjMm6qO3aJg5A5C2IHSMC1I0Tm1zZEOigWUsEelod3VE11hjqY3YOlZtVtuj0bUASu/DTLa8DOOZlgHP2chjV6LvWXZx1D4GGKln15bueM15Wb9BdbX6uTY02VKittl2tVltVwxsm81bPHpcGo5FqHv3pY8W917X89cCaywD70v3550gf4FmmLZBU4rgv8W6+LR8mcrVaF7WS+34gLSm5oDcyPtetW3jryiGcV3/EkB1UdsVgxfK5Wnbr3kLoCD8tSVA6CwvSNquAwDWjYC1E9qTdRb466jbLhX35NOyJpw3HpFdUyqc3fEY9AyMRfdH8Whi9eEaepLp8qonRYKkfGojXjcLe0q0Tq4YxAcKqtDxan1d9CMJBYvFbwW0t6lg8sdb+Krb0fp/vk4yG6pAXErWD3/z38TEJY3XyY79steTvLSAuJy6C5QXA0vTYo1iHQp9eAFQsU8NvX9RYKUd5zkhQUx7Dh1sPlvzYmBNivbofUZnXyXIzXPPl163xGG5oQ8fdROXBuShQ7xga0IZIna1RujSGD6zTi31CHmI6hwjBW11exlPMQhLLYAC9fUQukDx7dN8PpwfFHlJ6C5+zcezDZze5bcWsIWNmmSFo9tnYNFf0kkD5s4ie2H0s54OUt0j11394wA+z15ghSsGtmzzFkBxDv1wdpbcjtAsZmLgWb1lU2lPM6W2RrbmdJcegKgB6GwrgF1veXuCZMdJNVfdWE+XY89YlaG7my7cuibp46aepCDR715cYM9RdvqHIsdrsUZNXePsAIjJllAF+LLkta4nyCEW1L3uBw/NX7XsrqlrfpeyPK3lC0eY0IbRGm1kfyq8QR13qyzs6aI2qC1qk9pmQXL7sR2P+1jL3tQCKO3E1R9kQZuo6HqJw8p8H3W0UX6e7Muw3tRw9LuNm5ymc6wwofErHDlfr7wqIz5leK+rY71cjU3vhPc011xbsdm1vbk5VIoKlPYqQ/1R6YeLPsYAVfz0IuEb8k28kY/jA4cB3luWkMQ4Bf1ql9nUqyI/68DzetcWhzysy72X88mflRePHxjrq+MwJk9l4hpnj+qsuqsNdKktdfyq1EYet/NigaRiGDO9KZBvenTtLK8xcj9GrkbJwZyxb1YtWEsCPAaztMwMz+YmJ6BlQBqAQa/Ql0f+Id9HXZWsJ6uctqSYHtUWofF41UAuDYYAxC7o+M5L1nAfp6BFTWXDzflKoyApj/KmGyRVLO0eZdFwv6nMljcAoCcA7MNTBqLNWK9H0fYMu9Sb8PwQmv+aehlYvNbZaWWkM0+7R1njggbnU/8GcHpxKLQBoHrafi3TXkldQdrfcFSGZAok1SljHmUBCX5foLe7ubbNmwNSDR9pX1u0ynnb257ucsY8yhqqH2bwCZCGCvW2zeYs9EcA6rpMg6T6ZBwoVUK/k2J7vglgGrWuScuAdBPX4S1eJ5oo0vv/cQGUmsz3Sn/lGKT5/N3IHcXlzgvpheM7NBqHdJOIvIu/Qyp3qNqBQAcCHQhkHIH/AwxOZthbi6SjAAAAAElFTkSuQmCC;" parent="1" vertex="1">
          <mxGeometry x="360" y="158" width="44" height="44" as="geometry" />
        </mxCell>
        <mxCell id="5FvPEEqMPcQxhuBh9iza-16" style="edgeStyle=orthogonalEdgeStyle;rounded=0;orthogonalLoop=1;jettySize=auto;html=1;entryX=0;entryY=0.5;entryDx=0;entryDy=0;" parent="1" source="5FvPEEqMPcQxhuBh9iza-7" target="5FvPEEqMPcQxhuBh9iza-13" edge="1">
          <mxGeometry relative="1" as="geometry" />
        </mxCell>
        <mxCell id="5FvPEEqMPcQxhuBh9iza-18" value="Peering" style="shape=image;verticalLabelPosition=bottom;labelBackgroundColor=default;verticalAlign=top;aspect=fixed;imageAspect=0;image=data:image/png,iVBORw0KGgoAAAANSUhEUgAAAEgAAABICAYAAABV7bNHAAAAAXNSR0IArs4c6QAAAIRlWElmTU0AKgAAAAgABQESAAMAAAABAAEAAAEaAAUAAAABAAAASgEbAAUAAAABAAAAUgEoAAMAAAABAAIAAIdpAAQAAAABAAAAWgAAAAAAAACQAAAAAQAAAJAAAAABAAOgAQADAAAAAQABAACgAgAEAAAAAQAAAEigAwAEAAAAAQAAAEgAAAAAggmnegAAAAlwSFlzAAAWJQAAFiUBSVIk8AAADyVJREFUeAHtnHmQFcUdx3v2scixi0c0CoZoIodUrPwRNDGKeOARFNYIEo8iKS0rptQkxsgumJJkjTGyLMEYoyZWktJEiyQIyC5IvJWjioqaSv6wRCiTUiLeeCwrwh6Tz7ff9OzM25n35r3dJULRxdvu6ePXv993un/961/3YMz+sB+B/QgMIALeANJOJP2zaf6Rg42Z5FWZCVQYz2+c55lDfGNqSeun0AZjbb5vtlO2hXgTeZt2dZt1N67yXrM19tCfPQCQ7zXVmdOqjJmFsFOQa1wfZdvc7ZsnPd8sbW81Tzcar7uP9Io2HzCANFKG5MzV9P5NfqOLclF54VZG1/2MrDsHamT1O0DN0/3PMVLm+Z65DOLMpl5hp/HNen7P8+pfYmpt6u4wb/gdpm33G6ZNtQcfYWq9alNbVW2OyHlMQ98cazwzkd8kiocWUoTGbkbUvR1dpumG1d6/C8v78txvADWf7Q+H9fkQ/CEMVUeZ4i2/jZBLAG7ZjpfNxsYXvN3R8qzpxi/4g2uOMSdSfwagXAq9wwradtDPbf7H5qf1j3rtBWUVPfYLQAun+9OqqsxdcBCfSoyULmOad35oHm582ussxmHjaf6gYbXmKtX5qM3cnaX+0BHm3Jwx9cHIipLf6neZa+pXea3RzErSfQLoyol+9dgjzULe5A+infN21/ndZn5Dq/dMND8tLXCGH2j+DDMzVYf2y9o/MBeXAsnRW1TnT6bNzfAx2eXZ2De3M2IbKh2xolExQE11/ihWpodg6oSQKd+8iXT1c1q9P4V5JRKF4Ljq5YKkds11/mwEWoRUh4d0fPMsSvyCSpV4RQD9/Fx/XHW1eZTGR0UYWdHZZa5ASb7n8krFFpwRVjddmFS3EpCgedDwEeb3vLgZjiZ0XsE0OGdui/eSy8salw3QovP8iSZn/sZbOjTopAMG5tSv9H6VtVPVKwWOo1UJSGrbfL7/fTua3ILhm3dMl/nanNXe8452lrgsgJhW41GK6yPg7OjyzQzezGNZOnN1UsB5nfKRQZ1oumyd5PqB37MwE5bzXGPzAIlFY1I5Iwk1ki1YneOZR0Jw1JlvTu8PcDADFvP7reOE9D1MiV+4Z97iTClxAevyssTiTTyC8Du2PqO+ChlkxGZprzqZANJqZRVyj87ZwZuYCgPPZe3I1Rtaa6ahH0KdI3DqW7zrXbmLG1q8OQkgTXflWWPxKF6pv0NtAPuoA6rMCtlUWWhkAihYyt1q1RFMq7LBEUNzW72HMAHmKZ0GjsoUoiBhdd+AnluRLynvrwUJVUCrDrXUyovBuTALlZIAyQiEYGjnSCFr6GYhnlanvtVrAqQpSSOnsI1AUt2Gld6CwrJynsVzd7fpGameubZ5ml9yRBYFSNsHwLnTMcIbX1HuauXaFsaA9GRhXtpzOXXTaCgfw/UOZJDStsHLmTvtFsllJMRFAbJ7K8981rbDCJSdk0Bjr8pq/xAZZNDmw2hviPlxMQFSAbK78vzGM98eC7kcI7BYp//PMrYv70tNhDx45rpbz/M/Hz4XJFIBYmpJkdpdOQTXlbN9KOjjE/eI7rufqbY2YKy6OmfmpjGZCJDsBPlzXCNtPF16X4lZ7kOZJGuabZQIkDyBEMjbCbgssu7K9ybw5rR4a9FF68WzZMU2uiaJ/wSAwDPvJrX1MbKakxr2dx52zmoMw6vtz5hV/U0/iV5UNlTK7Ebj98Kjl+kuBzvERosg8/RtObuUHuggY44+KjI+K+VNsrGFeYsR8WlojB4+HdlbTcz86AUQlb8RdoibNKvTKmxTRiLwDJzAInAww307FvrGeau8f5VBok9VJRvOtiXMsWtFiLkzi6g4QGzmznC9MuyWuXR/xmx869hla+raIyDNaSkCvS2cXv8geZ3VEcof+CDD0QJEv1MKu4vNuUCTW6apuFMO9sIG7lk766bp/tfdc9aYN3Yj4Kykvusn1pSX8iXe5FML63zLdKywggfxWMwLIBlRJR+JNH2PbZrqfybaTQwgNPkpYSEaPs2Xqw7x2i3JsSvGoEy1IUJaQYJ93SWMlJsj+e8ztR5gijXB5IPk71QZb5IzAHMbTq8LFpzpH8h2QDqi7ADIDeKxmKtEMtLfBkecoyYdLYUhBhC5x4YlnFuF6UjCgQPa1mXBEfICQDojUiUxSbsapm+P19E3j3W2m6OZSrPZ383DeJuFDhojo9QS8PRCzV8GDTPveUPNm0y9zQun+ecmEk/IZBqfTn9NKoJOUX8SfYaLAy9qQpRcDCA4CgFi2e3lvy0ER4QguDjLZrJmhLkUTg8N2rzKEjtz3uPeB1FmWMm2dbWb6TD8cpBfTRvkyw//qpxpaZrm99ITURouDa2nEvxJiU43OghlZejqvkAYYgAh7FhXwkll2Eh5qeAkOLscjWiMXjnbPQPAYgRoc8/R2ILmm0aXB0+d/FzdXC6XHxWuvFgc9SepXtpIYuSGskYxUJsYQIygQ5Sp0Nlp5Be2oa/gNJ/nHwdzJzl69JOq/FXn7y1mCdHv0E8beVEn+Z1mHIx/HLSfyHS7b+FU/5jguWhk/UmMclcpCSQdfbtyUPxUmCYRs4N4s7UQsEFn5UokgUO2wGuD0Z+oTkHoRp+EihhFqVsdD1DHbnxVt9M3RY+elxqva+lK8+0oXVa/f/J8ovKg9y2oXYjSv4htkLW6Zxk/9+U6c2O0TSQtWcTzSOVFQLKHk1bWA1Riy2rzqfzfGEBkhYXuIoGOg2HIKuRIw5HkJYGjKqiX/Ep1a50/Bmb+yHMeHF8qyyzb1WLKNgaZovOh8xvo2ZFD/8P4/RVXxXG6sHDwRFPFcyN1MgWBFBx13yFZB48Jm4UYKCc2xcIq/ZQAle/C9BBLzjcvgNwErVaNFdzpYaV7nN+Yrm7zVUB2Snxo9aAed3C5bLMCg1M8QJt/PaFwBGko2jmoKyjmBfOuLhJgR5wqxHuamdcZCvdEnsMkgLAA5gNvfYrjAHCuQzGHytDVKTfG6b8Rs+JKXu0Tagsfpyoe9bzp4jDnJqWTAnxdSb6dYiqn3XK8i3cpbWVVggC/O/Kp/N8YQBSGAOl+DlXe1X4FPXSxjC3KHUgjgblGCjBKLCF9kMvLdZrNLt3XuNszm3KOSLCw2FHZkjzF0IOL4L0QnIvcPnPwAcHBIjSRSxiEITbFQHW7Kxk0qIegCOm2BY2XuXKMsOvVsXtOjH3zisvvzpk6l+5rzMo21tEg/bZLJ8XiUby6smDkhOAovyvXIysIvevqKo4BxHP4lpke46MVKwIpv32wZBjii1l1ftR4jh+aElH6WdJaqbCQj0d3/NrV56VtcOnCmK1Kcylw1Ia9YSgrfG6J0olNMQpCHQFyYSPXIGm6iQF0wsNJ1vSrnebuz1aby+n0i/wG8bulZoi5BfOgkzSylRl8zJLAsg5adqDwQrCi1LTVYFqFKiBp5Lj6MDKeujZwdhZioIzYCML3/GK+Gn91JzAhFI4kGLwhCRw1vWONtwsj7xyYC/c6yhdYRFr6y/tFwEGo3VjAl6cpfm01kEcHD04hx6aV8l0AnOPDtBfBgMwYQFhv611FAJqUdn4dAWlGqRPPhoe9N7a8hhXtm+8A1AZ+1rUQ9lNOQnaUb7bxu890momA8ECx5ry4JoCcwWqVCo5kpM7Jjg5WdQ8GZLqR5crNovN9DbG8r4YldCAcV7LOt7X17jtkIiWhpdyuVinllWTr+h6cPKO2AL8FOy0ve0CsUAep0hNMAVuJtJb1tUHdfos0AvuNWN8J6VKDDYwka1u5Z8W9AGIqPAiiV9lKnrmEt339nhCIFedMluyz1C8r6GOynC0PA/hHI5m+LnHTiP6XFnYX00Eq1PV+oq1KM5IO01VbpQc8+OgBzzTYnx/36g1U38NrzFTAcd7KrYHsse56AaQ5ztS639XCYq136X0uzvXIJpmT9FsvgASCvn3QMmoBYTWzisw+7Dt/JBOj5xRJJFlZvey+rFDCRIB0p5j5eK+rDIGbXXpfiaMySda5a7z/JsmWCJAqMuQWELkra5OxfmcnEdgb8yQL+nVywHuHPoJJkyMVIIys/zD2bnMNGY6L0Prh7tzl722xZJAsId/IWOwLoVSAREBfzRDZFY3V5XDOwv4QEt5LE7qFL1kC9rcGMqZKUxQgfVLE5k0fxdnAsLxAN9jdc19ibSazti+nbjGaeBO+hww9hqG+CCrx2VRRgNSZdYrz1YzrWMMThq1B5/LKjfHRNOBieLKkPwnCclmobjknuEn8WEO0Kja1bs/yuVRJgNSZPilCaT8bdFwNw8sBKdwBJzGUlqezclwkVinKVVIMJIHDC7EuC3uCy1F0Gt1i+eIVOiv4DVY9ySKZirVxZZkA0vm1PiliaXwlaFiDAbmmEpB2tplV0CnpmYyCoz7VBq9mq2M8a6wrNuKV+jVqAzivSpa0eweFdAE1ewCQ/vuYJe7jFuPb0A+jxE00HTzLwZ7qskiTwE4rRg7lFhxQHriPWcSEdU7xSZE6CpiqYbqtlvILnjNFEX9SOJIcOCIQTQNWReAEPK2GXAiOPodKc7ClMV7WCHJENJLQH4/Q+CiXFwhyBcK/7/JKxdpNF5yWxJpUAo7sHC3lsdWKaYXn8+xywREzmXRQjGse1NGuLnMyAjjFrbc+gxscm8qxuJNGkuurEnDUt3goAEefZJ5UCTjipaIR5IQIPtNeCJXYbTCEWwvh+Vm9kYUjqVxwtPFEiX+yPup1ICnWVzP6MITk6Gg+TK9j3je37zBrSjndApCsUcpqdVem+vhz+Dy0npdhd+WRvj8Zn4VHGDL2yyB9GMK3D+RXR8sA6i12zEvIW647gVmX2CgNpTVihx1tvsJFqpmBJ9A5u1zVDkbfL7koc1MpC9k1KBX3aYolEdeHIfr2AQEug7g1zKL1EOAj8jcA2nPEL+nyUq7LvM4njG3b3skf+4461NRiaNXqxJNVcjx1xwP8RFbPSeiXYVF6SlO+mz/38TXSgmIbz8J2WZ77HSDXqW7M6no/AslNEpt6rk4/xPY/N5GzK82f09c+Bgwgx1gj1/t1g50RNYvOpgDYWFdWScwI3MKIeYJDwQd3rjJPJblJK6Gb1mbAASrsWPeQddUWQSfYC5M+1+u4oQEjtdTVT6ENENrQW9uZWpt1HAywL+pQb6BGSr7b/X/3I7AfgT2MwP8AMXAPBiP5fGQAAAAASUVORK5CYII=;" parent="1" vertex="1">
          <mxGeometry x="470" y="160" width="42" height="42" as="geometry" />
        </mxCell>
        <mxCell id="Lc-Y_Os3M8UPsbNNQMbC-1" value="VPC" style="sketch=0;outlineConnect=0;gradientColor=none;html=1;whiteSpace=wrap;fontSize=12;fontStyle=0;shape=mxgraph.aws4.group;grIcon=mxgraph.aws4.group_vpc;strokeColor=#879196;fillColor=none;verticalAlign=top;align=left;spacingLeft=30;fontColor=#879196;dashed=0;" parent="1" vertex="1">
          <mxGeometry x="40" y="656" width="281" height="261" as="geometry" />
        </mxCell>
        <mxCell id="Lc-Y_Os3M8UPsbNNQMbC-9" style="edgeStyle=orthogonalEdgeStyle;rounded=0;orthogonalLoop=1;jettySize=auto;html=1;entryX=0;entryY=0.5;entryDx=0;entryDy=0;" parent="1" source="Lc-Y_Os3M8UPsbNNQMbC-2" target="Lc-Y_Os3M8UPsbNNQMbC-3" edge="1">
          <mxGeometry relative="1" as="geometry" />
        </mxCell>
        <mxCell id="Lc-Y_Os3M8UPsbNNQMbC-2" value="MSK" style="sketch=0;points=[[0,0,0],[0.25,0,0],[0.5,0,0],[0.75,0,0],[1,0,0],[0,1,0],[0.25,1,0],[0.5,1,0],[0.75,1,0],[1,1,0],[0,0.25,0],[0,0.5,0],[0,0.75,0],[1,0.25,0],[1,0.5,0],[1,0.75,0]];outlineConnect=0;fontColor=#232F3E;gradientColor=#945DF2;gradientDirection=north;fillColor=#5A30B5;strokeColor=#ffffff;dashed=0;verticalLabelPosition=bottom;verticalAlign=top;align=center;html=1;fontSize=12;fontStyle=0;aspect=fixed;shape=mxgraph.aws4.resourceIcon;resIcon=mxgraph.aws4.managed_streaming_for_kafka;" parent="1" vertex="1">
          <mxGeometry x="69" y="749" width="66" height="66" as="geometry" />
        </mxCell>
        <mxCell id="Lc-Y_Os3M8UPsbNNQMbC-10" style="edgeStyle=orthogonalEdgeStyle;rounded=0;orthogonalLoop=1;jettySize=auto;html=1;entryX=0;entryY=0.5;entryDx=0;entryDy=0;" parent="1" source="Lc-Y_Os3M8UPsbNNQMbC-3" target="Lc-Y_Os3M8UPsbNNQMbC-7" edge="1">
          <mxGeometry relative="1" as="geometry" />
        </mxCell>
        <mxCell id="Lc-Y_Os3M8UPsbNNQMbC-3" value="EC2 instance contents" style="points=[[0,0],[0.25,0],[0.5,0],[0.75,0],[1,0],[1,0.25],[1,0.5],[1,0.75],[1,1],[0.75,1],[0.5,1],[0.25,1],[0,1],[0,0.75],[0,0.5],[0,0.25]];outlineConnect=0;gradientColor=none;html=1;whiteSpace=wrap;fontSize=12;fontStyle=0;container=1;pointerEvents=0;collapsible=0;recursiveResize=0;shape=mxgraph.aws4.group;grIcon=mxgraph.aws4.group_ec2_instance_contents;strokeColor=#D86613;fillColor=none;verticalAlign=top;align=left;spacingLeft=30;fontColor=#D86613;dashed=0;" parent="1" vertex="1">
          <mxGeometry x="174" y="717" width="130" height="130" as="geometry" />
        </mxCell>
        <mxCell id="Lc-Y_Os3M8UPsbNNQMbC-4" value="Prometheus Server" style="shape=image;verticalLabelPosition=bottom;labelBackgroundColor=default;verticalAlign=top;aspect=fixed;imageAspect=0;image=https://upload.wikimedia.org/wikipedia/commons/thumb/3/38/Prometheus_software_logo.svg/1200px-Prometheus_software_logo.svg.png;" parent="Lc-Y_Os3M8UPsbNNQMbC-3" vertex="1">
          <mxGeometry x="38" y="45" width="54" height="53.55" as="geometry" />
        </mxCell>
        <mxCell id="Lc-Y_Os3M8UPsbNNQMbC-11" style="edgeStyle=orthogonalEdgeStyle;rounded=0;orthogonalLoop=1;jettySize=auto;html=1;entryX=0;entryY=0.5;entryDx=0;entryDy=0;" parent="1" source="Lc-Y_Os3M8UPsbNNQMbC-7" target="Lc-Y_Os3M8UPsbNNQMbC-8" edge="1">
          <mxGeometry relative="1" as="geometry" />
        </mxCell>
        <mxCell id="Lc-Y_Os3M8UPsbNNQMbC-7" value="AWS Managed&#xa;Prometheus" style="shape=image;verticalLabelPosition=bottom;labelBackgroundColor=default;verticalAlign=top;aspect=fixed;imageAspect=0;image=data:image/png,iVBORw0KGgoAAAANSUhEUgAAAHgAAAB4CAYAAAA5ZDbSAAAAAXNSR0IArs4c6QAAAIRlWElmTU0AKgAAAAgABQESAAMAAAABAAEAAAEaAAUAAAABAAAASgEbAAUAAAABAAAAUgEoAAMAAAABAAIAAIdpAAQAAAABAAAAWgAAAAAAAACQAAAAAQAAAJAAAAABAAOgAQADAAAAAQABAACgAgAEAAAAAQAAAHigAwAEAAAAAQAAAHgAAAAAGtq0ewAAAAlwSFlzAAAWJQAAFiUBSVIk8AAADH9JREFUeAHtXWuQVMUVPvOe3Rl2h0VExFchigIGiAZJKYuQUkipMSoYk8qPiCbGQAwWJH9MgpX8iElJtJQkagxU/iSKoEVM4iOCCCQoCRFSYIIiooAgy2Nfs7vzTn+9dG/v7MzdeezO3O6558f0vf2695xvuvvec06f6zo6+sEMOWSsBNzGcuYwxiXgAGz4H8EB2AHYcAkYzp4zgh2ADZeA4ew5I9gB2HAJGM6eM4IdgA2XgOHsOSPYAdhwCRjOnjOCHYANl4Dh7Dkj2AHYcAkYzp4zgg0H2Gs4fwPZc7koeMsUCt72GfJNP4/cI+sofbqbEu8cpp4X/kM9G/YQZcxxcnHVksuO54KRFPndneSbOm4g8GdyEruPUOvdz1Lq49N56+hUUDNTNMBtevleS3ABHMBHPdQ3gWpjimbTMkauZ3SYY5bpTlDnE1uoZ91uSh1pI8+4RgoumErh7zaTq87H66H+yRue1H66rokRjDVXTMsA99Ttqyn6yBuUOniKKJHiKc6Rj3IQ6qOd7lQbAN8+VeKEkZv41yF5rh4gH+WC8CCmO9UEwL5pfQ9VmJatSC3HU7buVBMAu5vqJU5Yc61ILVfbWbWxc1lNAJxp65EY4IHKitTydGu3VVUtymoC4Pg/P5Zg4GnZitTyxK4jVlW1KKsJgLvXviPBwKuQ76rz5bl6gPzw/c0yq+f5XfJY14OaADj2l3cpvv1DjhHec5vWL6LQ8jnkuaiJvQ95eIpz5LuCPl4v1dJJPS/t1RVXed81o6p0s7W3acM95C1CQ9X1h53UvvRFKSwdDzzLQ80P2eXGvVPGUmDeZRSYM4G8l44mSmcofbxzSG4v0xGj5P4TVLdgmmV/GLnukJ/X8V1xLuGPEXvlf5Zt7FxoC1VlYP5lNOJH88h7CQM1i5Lvt1DHT16l2KvlC7n+61fJ3lOHThP5veQeVd9rTWIPVFhzMS03rLyF6r92Ja8rUl1HctWn6PCP51F4ySwp+HwHnau2UicDulTyTj6HRm1aTC6ml84wc+DJOaso+e6nebtreOxWCTIq8el62QYK3jyZggunEZQn7ggzNZ7qsrWpsaoAhxZfSyNWzJdCTrd1U+y1fdIAELhhIrkb62R5+0OvUNevt8nzYg4iq79KwZsm8yY9f95LrYv+OGjzbJDTJ6LkPiuUt50dTY1VA9h9XoRGb19KrkDvKoGpse2BFynT3qeUcDUEqfHRW/mogVQzsSS1fP4xSh9uzSvkXAXeSWNo1BtLCh69ah/ZIKtluY6xhp/64lO2sSdX7TWpftHVEtw4U/K3fuu5fuBCeAAb+SgH4c9Qf9cMflzMT3j5XA4u2uCVyWpqzu63nU3LGLmCYG3q+MVGapnxSzo2bgVPcS6sUDBJwtTILiiaVDWtGsCBL1wqGe98ZBNRKi3P+x2wfF5+JlNt169enhOsvYEbJ/FSrL1qX3ma9MsOfmmKnJYtTY0L1kiQ7WRqrBrAnvMjUpCJtz+Sx7kO1PJiPS3Cy+aUPHpxL3UL+1SblqZGpg61o6mxagDnArKQPJen8FvG2lvO6MX9+Kb1mQxVU2Kue1XL7WJqLFxauTgqI091avNdfaFlT2p5El4YBVI5a6+4hKsxKA750708yXHQz9TIvDXtQFUDOLbxPck/gKB8I5Pl8/IzteOb+trJDnIclLv2ii7xnitINSWKPDVVy+GKaweqGsBda3bw1x4Iwc+sOJGnv0J4LVIJ58hHOQivSWhXCJW79oprqCZD1ZQoytVULYeftR2oaqpKvMt2Pvy6VHRAQ+RvHm+p6ADA2X+CXEIcqtGLvnvW76Yg04+DYGqMb96f06drgKmROdHbgapqbEjAEM/Md/4ZvWswTHU+9lrjn3kRT4XpTggK78F4bYkxIVsZIRp+fjP5Jp7Nm+G9t+uZt0QXRafJfS0EjZrnnAZyMdNi3W3sqdrrpvQn7ZSJxrn/dP09M6lx5Ze5yy0uAI1Wxw//WvS1hqNB1TRZKjOWxob9LdS1+m0Kf38u22bS61uVPt3FXFzXUHLPUd5N4KZJ7HVmOvk+27sVxcWMCIJOzGU65z3HxGlJqXCaF37VVp3YTZNlC4CFwGAu9E1nSvymEEEvjXUsufsTXoyypvV39QO57f4XKMQ8MPyfu0B0MSCN7/iIWu9dS+lBnO0GNMzKAMg6bnuxFcBZMh1wmg3ygAp5MlLH2unUjU9T6lBxOuwB3Wm4cU0rgCHwXCBDhQgtEhQNubaioB1mg5Pzn9J+Kwp4KYaq+pBVzI2Kuni4SkdjFLx+Is8S+mGAm4GbK/MCQZr4x0GKbzvAH4rwcOQZ20DJ91ooue+46Kom0qq9B5cj3UDzBNncUj+cvRXlDmt3HdmpQQdaAuxXVJuq/jcXLmq534CtKLl4tMrTEuBS9cNqOyuhmFSmJcAl64cVvbJJIFrxoiXAqp5X1f/mYlQtV9vlqmtinpYAI1iKoEG3ojD9sSC1ncgzPdUTYBYJB/pe0KBbUZiuG4T6PIIOP6udH+0UHQIanfXDgodKpFqOYAgGHiFwTxUjOZ+wUG4nN9Z89zlc+dqOYCkQDfXD8t4rcKA/wBUQks6X0HaK1lnolbx3B+BKSrsK13IAroLQK3nJPt+WSl61gGthi6YXIRZsTJlkmu1b/m9Re50qzY4tAQ6yyHSRXy2otCxKul7ovmvo+OSHeUjEkjoY5kb2nKKZ16I2ZI9NhHnFZcsR3LN2F8WYcT4w62J5412/32HpKisrDvNBYP7l5LtirLwKtpcioKldyZYAI+J627fXspALS8gzZgSXnWf8KGr/wUtV9anysrANoe/1GS+izN+6508sQryNybZzYbolSm33PU+ZdO++YYzmMItlVS2Cs0DkmTtJ+FxjS0vHiperdTsFX9e2AIMDOM11sjjOgkLLriP/tePFaUXTxlULZIwt+Gy33s1ifNh4ahbCsTXAuMnoys0U2/oBv1+X202Nv1lI7tH5A6EIxoYyRbAYsT8J/bYtWV++j/VQ3qBFX7YHWKzHqU87OBtYkxufvKNiMTB8My6g8IPXSxFGWZSfoYjZJTsc5gP7A8wEUK312MXiTEd+y9Zdr4fDgG0wHT99bZghGdrutQAYLFd8PWZmyAhbDuAwD0qfjFLrN5/LHyyG17LfjzYAQ3SVXI9DD8xmMTMv4YghOk/r4nWUPtpuPwQHuSPt7MHus8M0auNi+X4c33mI4pveH4TNIouZH1foO9cQHupAnY9ups6fvV5kJ/aorh3AEBtelUau+4YEYDhFGfv7ATrN9iJjz5OOpNUULQSM9Tj6+FZxOmwpvtnQxvYW6wouBGNPVWUBkHU/+28KL53Na2KNjLJplFLljzL/rPE8hAQ6jrGIPlahIvjFbf6jLcCpAyfZXuBW9lm6CI9kF/vbPkrsPFy2uEde2RvRBx3F3+xVsJTdaRU70HKKFvKKKQD4lS2lorzolO0j9s+8UDaLbXEAlsKoxoE6wgLX9ZkWS70XP9Nauep7w/knPzhRdlyPUu9jKNtpPYLjTEeN9RfkY1Orq753m0qpAvLP7vuTqH+eUvuzQzutAUYcZxH7GWY8H4uvVQ6p03xsy/5yurJNW60BhhTjChABZQQWK2FE0PNNPZc3y7AY1fFtHxbbhS3raw9wvwet2RNKFjJej0SoYhjz1U8LlNypDRpqD3DirYOUiSe5KL2XjynZVhxoVtZfA56exX9Le4AzXQkZHBSfzPErjnqCyUJSEx+wwLf2AIOJftO0MhJRVgjh62be8WfxqpmuOKlfKy2kvZ3rGAFw/M2+J95SHrQCytod335QC1+rQv9URgCMh6L0me8tQXXpubh3NBYqBHV6NkF7pfJtBMCw9sDCJKjYUaw62McNesCCPMwAmDGiAuMvYh1GdHjxuTrEek7uLS+2tPiT2SU1BmBEgRfEfafdhW0a8qvr7xn3XNGPCakxAAvzIUBxQyvFAosXQv3efxXrVCFtdahjDMAQdv/XpQK0WgaaB7P/dEYBrK7DhTxo4VMA0jx4wAzzoPEAS/Mh+9bSYOZDv2JDjm/W37ifDS7OtXXZycWMMB/i0zwwH445uCJXtZx5ppgHs5kzaooGc6r5MJvZfOcmmQezeTQOYHz6rpgPWGbYFtDoE1uNMQ9mA6yl43s2E855fgkYN4Lzs1qbJQ7AhuPuAOwAbLgEDGfPGcEOwIZLwHD2nBHsAGy4BAxnzxnBDsCGS8Bw9pwR7ABsuAQMZ88ZwQ7AhkvAcPacEewAbLgEDGfPGcGGA/x/s52oeimQG7QAAAAASUVORK5CYII=;" parent="1" vertex="1">
          <mxGeometry x="371" y="741" width="82" height="82" as="geometry" />
        </mxCell>
        <mxCell id="Lc-Y_Os3M8UPsbNNQMbC-8" value="AWS Managed&#xa;Grafana" style="shape=image;verticalLabelPosition=bottom;labelBackgroundColor=default;verticalAlign=top;aspect=fixed;imageAspect=0;image=data:image/png,iVBORw0KGgoAAAANSUhEUgAAAHgAAAB4CAYAAAA5ZDbSAAAAAXNSR0IArs4c6QAAAIRlWElmTU0AKgAAAAgABQESAAMAAAABAAEAAAEaAAUAAAABAAAASgEbAAUAAAABAAAAUgEoAAMAAAABAAIAAIdpAAQAAAABAAAAWgAAAAAAAACQAAAAAQAAAJAAAAABAAOgAQADAAAAAQABAACgAgAEAAAAAQAAAHigAwAEAAAAAQAAAHgAAAAAGtq0ewAAAAlwSFlzAAAWJQAAFiUBSVIk8AAAC8FJREFUeAHtXQuQHEUZ/mf2fXvvR8jTJMBhosYQIiUGQcNVEQ1VHgQEypKSUgRBSqsQfIWytPBVFCpQAiJqUT4KEQJELqWmiEEMShmJ8iaIXCqEXEhyubu927u9fY399+z09W427uxdz0zPbP9Vc9OzN9Pz/9/X/U+/Wxvq2WyAksAioAfWMmUYRUARHPCEoAhWBAccgYCbp3KwIjjgCATcPJWDFcEBRyDg5qkcrAgOOAIBN0/lYEVwwBEIuHkqByuCA45AwM1TOVgRHHAEAm6eysEBJzgsi32h5Z3Q8eCVEDqpBYpHJ6A4PGmej6ZJGI+K69LvxmROFhOk1EMagpPXfRDCyzopSKElHYCHHTGmcjMJAhPCEUwcVRJEKYE0WoKQg+CwDvGPvccOn8fdoyUiNDHUlSAwAVieAc+Wx6iSQPyeIKQgONZ3GugdTZS8/P4RGNn0C9C7k6B3kQPPVrjKNRJcj9AEsbgdQuSwI/l9x2DksvuhMHjMzu3S3SMFwfFLVjNgMo88BwVCMh52REtGZxJClQRQmUDqTRD42Yhf+F5I/+hJO+pId4/nBCNB8fNXMGCmHn6Ohe0EjHQWCnjUmyC6mohnaJ7xDpaXKHkMzOHoQVD0TtO72NFHtns8Jzh2wbvAylW5F4ag8NoRRzGymyASn1gLbbdfRHXRWmKO6uRk5J7XgxMXl7tnJ42tJ25jYprdrjcrghkY9QT0niREzz2FPmIYBkw98nw9jzt6bzGVYfFrrXEW9lvA0xyMhRctZKqQ/dsgFIdS0uBnjHMEKxc9O17ivHuus3A1uzfaf6o4zrloRbB94Kw7sWkyesZiemlk85AZeMn6lxRngyNYa1Euum5S+Nw7/cRrYIzNuMS6I3PggXKCVSGrboj50vPUlvrqvnW/bBYPYCkaC34oWFcHTZtFLN4/4kkhK3z6Igif0k2tL5LCzPT2vd4jUUUDq6qkEXK1ZkKyD8UTgvncm3mcfHun81JCV+6m/fkddp9gXSNtu6sYoRkJ3bOlHE+w7tOStOsER885mXbqI4iFt8chu2vQwlO6M19V8mtzpesEl7nnR0nLVakgIx27RKEgNHa4S3AsDNi5YEm9PUfWc26dy120+gbXxD2+YQXopUaD/OtHIP/8wZrPeHkDlvAtUS7aQuL/nPnGDdlzL5rB52C/tma51h+stcUh1tfL6M941HOUvHE90yF9204WrhbgCfZrKdo1gnFQnRY1X5d99k0okLFOXkjLl/vYa2sRrErRDKragQQ/7kriui9viRGAPmFXStH6wjaInLWMYmcUipB57AUeR2nDVlMlKujXUR2uEJzYRDr2S4312Sdfp2OSpWWVUywIpWhXvsFlpWefuGfkmS9kCSlFk9Er+vwWCBGPhoe+sBVCi0h4wUxYb0tA+p5dMPH9HVxSm33QcYLDK+ZB5N3zqYbGZBam//DK7LV1+Ume4JqlaDvkzWsGTa/tNJPXn+Mfgvncm/nTq4DDVv0iZaXo9gREznzH8TkPcyDJibpN8uzYbtU27Nxb6x7HczB+fy3JSDbuytLrRGe+FI2zHru2XX2iW239bhSLZHJcGgpvjUHx4BgUyCBDFibXXQNzi7+aEo4SHHn/UjZLsHhsEqZ3/qeaDtL+ht4Gx4vZyVHHkYcEHkyZRFphHDVKahFuiqMEl/UcbSVVo7y7xs0ZSNLTlb5rFyQ/dzbgOGk+t8lAnh37nCO4YkqojOOu7AA08b0nAA+/Su0i3Swti53XyyZtFd4cgdw/9s8yJvXYXBBwjGB+SujUFnmmpMwFLD8+6wjBdErohpUMD6fHXTXfdB7MP/xtevC9RUyBBg44QnBsIzcl9MUhyO893MAQe2u6IwSXlZ591DTpLRXOvF04wXRK6Ie4KaGP+qPnyBl4vY9VOMHx/lVsSmju7/toRd97MxtXA/EEX3I6Q9MP466YsgENCCX4uCmhj78YUNj8Y5bQlqz4ppn1NkRMCeWrPLXGT4mGPLpuOUTWLaPRZp8eBPzc+FGEElw27krAqMl6BsiJBj969nLA+jXK+K07fEuwMBcdXr2wbEoo9v0q8R4BYQQnuMJVZuBlaaeEeg+5uxoIIzjOzTma3ibXehvuQirX24QRjB3jljRd9QErqM4eIyCM4NRNvwcc1YAS+/CpkPziuR6bpl6PCAgjOPvXNyB9+18Yqs1f6aOD1NgPKuAJAsIIRu0nbv0zZJ/ZRw3RwiFov/dSwElnSrxDQCjBUDRg9JrfAQ6wQ8EledvuvNg769SbxbloC0tcb3LsC1usS4h/dCU0XXUWu1YBdxEQm4NLuuO6V+mfPM0safnmRyC8agG7VgH3EHCEYFR//JbtkPv3W9QSHFfcft/l5opx7tmm3kQQcIxgyBVg9OoHwZqhFz65C1pv61egu4yAcwQTQ3AWf+qGrcwkHMqDS+UrcQ8BRwlGMzJkRsPkL3czi1q/ewGETuth1yrgLAKOE4zqp27eBrlX3qaWaE1R+j2GuNCeSmdR8nHs2lDPZnPNXIeNwFzbvf1aQIJRJn+1G1JfmnHfDr/eF9Hj2G5LDs272QrO6exKDkYNcbuc1NcGmLJNV5wJOEBPibMIuEYwmjH1wB7gJ6G1/rAfQss6nbWwwWN3lWDEOnXjVsi/MUxhx2UN2396GUAk1OA0OGe+6wTjpOrRz/4WjNIi4BGy+nvLNzY4Z2GDx+w6wYh3nmxhN/6tPzLok9esg9j572TXKiAOAU8IRvUnf/YMZLgVd7DXSV/QKs4yFRNFwDOC8e3Y61Q4MGoqQnb4xP5jIEv+KxGHgKcE415J2H9s5AvUoihZ7hBHgigRh4CnBKMZud37yxb9wrFcuK9Do0iotwcSl69xrCNGivbC9J1PAc4kiK3vpSvBtd39cRhe/2PfrGlpNzHibuSRNYsh8r4l5nntYrYCPh+HQXriRIkUBKMxY59/GLp2Xk93ZMFFx5DkkUvvF2Wn+/FEQxAhgxwooWSFPDzjdvG1BFfjxaWbRIlrbdF2FEbX3PHQlWw9x/HvbIf0HU/ZedTze0JLOyCyluRMPMimm0iunQXUcGuh3L8OQI4skp57lpxJWORyj1IRjCw1f7UPmm8wl93Hwtex/p/T77TnDHIK4IbRkTWLGKG4i6releTuqB40MjnIkY1IcnuQ0AOAK98XS7WI6k/M/VfpCMZqUudjnwEsUaNgNeoo+R57tjspWUU2vPIkQibJlWcsgSj5foZO7WbrX1Mlq/zBjS0Lg8NmriREIpn5lw65vtqffAQTsLDBo5t8j3VSN0bBBpHRT/2Ghp3+g+9GMqOWu129CLREpOZriyOTZs4kuRPJRJfrWaLktJWSYNQPmy47fn0FUzX19QHa+sV+EBDQmiIQJgRSMvG7iblzfu3WNCzl5l8+BNl/EiKpuyWbjJQ6UASoJTQKaQlGK1tu2QjYTo2CnRPDG++l7dj0h3r/kC0FQr3dMzmTEIquVyMuuJbgUozZ0neTFoZwQy9Jd0yttEVqgrEbEddoxh4nFOxmHO67y1Ypk9Y5MVdarpYUiqxd1ypB4K+LZGNoHO6bo7nTdLW4xrNfRW6CCao4IKBrx3WMHBwwMHbtQ+V4W3VOi0zMnUtt1DnJbMj8q4dNN1siNL/3CHEXroxiKrfBoStpGjpOZJ819Lb9PjIwgAgOvcWqRvHwBM2dUVIgCpM9IWzXObEAVPpuYk4VWec8kQ1e/i59DrbAaf1BP+A4LrtiTFl1TnSzpTonWUq/0UT6HGwRktq8jZRySZMfKRhVCq1z/veoSeQek1Ba53R5+fxKvWS49g3BkMnD6KcfIFWnT4Le0USb9MxqiulyZahzykBopQ6+cdGViqtrewjUrgTai0fdJSkCimBJiRGlliJYFJKSxqMIlpQYUWopgkUhKWk8imBJiRGlliJYFJKSxqMIlpQYUWopgkUhKWk8imBJiRGlliJYFJKSxqMIlpQYUWopgkUhKWk8imBJiRGlliJYFJKSxqMIlpQYUWopgkUhKWk8/wMjSC/KaSUlfwAAAABJRU5ErkJggg==;" parent="1" vertex="1">
          <mxGeometry x="503" y="741" width="82" height="82" as="geometry" />
        </mxCell>
        <mxCell id="lzMIn50TCi5RZ_wEebpy-1" value="VPC" style="sketch=0;outlineConnect=0;gradientColor=none;html=1;whiteSpace=wrap;fontSize=12;fontStyle=0;shape=mxgraph.aws4.group;grIcon=mxgraph.aws4.group_vpc;strokeColor=#879196;fillColor=none;verticalAlign=top;align=left;spacingLeft=30;fontColor=#879196;dashed=0;" vertex="1" parent="1">
          <mxGeometry x="40" y="345" width="410" height="200" as="geometry" />
        </mxCell>
        <mxCell id="lzMIn50TCi5RZ_wEebpy-2" value="Subnet" style="points=[[0,0],[0.25,0],[0.5,0],[0.75,0],[1,0],[1,0.25],[1,0.5],[1,0.75],[1,1],[0.75,1],[0.5,1],[0.25,1],[0,1],[0,0.75],[0,0.5],[0,0.25]];outlineConnect=0;gradientColor=none;html=1;whiteSpace=wrap;fontSize=12;fontStyle=0;container=1;pointerEvents=0;collapsible=0;recursiveResize=0;shape=mxgraph.aws4.group;grIcon=mxgraph.aws4.group_security_group;grStroke=0;strokeColor=#147EBA;fillColor=#E6F2F8;verticalAlign=top;align=left;spacingLeft=30;fontColor=#147EBA;dashed=0;" vertex="1" parent="1">
          <mxGeometry x="80" y="385" width="340" height="120" as="geometry" />
        </mxCell>
        <mxCell id="lzMIn50TCi5RZ_wEebpy-3" value="MSK" style="sketch=0;points=[[0,0,0],[0.25,0,0],[0.5,0,0],[0.75,0,0],[1,0,0],[0,1,0],[0.25,1,0],[0.5,1,0],[0.75,1,0],[1,1,0],[0,0.25,0],[0,0.5,0],[0,0.75,0],[1,0.25,0],[1,0.5,0],[1,0.75,0]];outlineConnect=0;fontColor=#232F3E;gradientColor=#945DF2;gradientDirection=north;fillColor=#5A30B5;strokeColor=#ffffff;dashed=0;verticalLabelPosition=bottom;verticalAlign=top;align=center;html=1;fontSize=12;fontStyle=0;aspect=fixed;shape=mxgraph.aws4.resourceIcon;resIcon=mxgraph.aws4.managed_streaming_for_kafka;" vertex="1" parent="lzMIn50TCi5RZ_wEebpy-2">
          <mxGeometry x="200" y="35" width="50" height="50" as="geometry" />
        </mxCell>
        <mxCell id="lzMIn50TCi5RZ_wEebpy-4" value="Connet&lt;br style=&quot;border-color: var(--border-color); padding: 0px; margin: 0px;&quot;&gt;&lt;span style=&quot;background-color: rgb(255, 255, 255);&quot;&gt;(debezium)&lt;/span&gt;" style="text;html=1;strokeColor=none;fillColor=none;align=center;verticalAlign=middle;whiteSpace=wrap;rounded=0;" vertex="1" parent="lzMIn50TCi5RZ_wEebpy-2">
          <mxGeometry x="120" y="80" width="60" height="30" as="geometry" />
        </mxCell>
        <mxCell id="lzMIn50TCi5RZ_wEebpy-5" value="Connet&lt;br style=&quot;border-color: var(--border-color); padding: 0px; margin: 0px;&quot;&gt;&lt;span style=&quot;background-color: rgb(255, 255, 255);&quot;&gt;(confluent)&lt;/span&gt;" style="text;html=1;strokeColor=none;fillColor=none;align=center;verticalAlign=middle;whiteSpace=wrap;rounded=0;" vertex="1" parent="lzMIn50TCi5RZ_wEebpy-2">
          <mxGeometry x="270" y="80" width="60" height="30" as="geometry" />
        </mxCell>
        <mxCell id="lzMIn50TCi5RZ_wEebpy-6" style="edgeStyle=orthogonalEdgeStyle;rounded=0;orthogonalLoop=1;jettySize=auto;html=1;" edge="1" parent="1" source="lzMIn50TCi5RZ_wEebpy-7" target="lzMIn50TCi5RZ_wEebpy-12">
          <mxGeometry relative="1" as="geometry" />
        </mxCell>
        <mxCell id="lzMIn50TCi5RZ_wEebpy-7" value="MySQL" style="sketch=0;points=[[0,0,0],[0.25,0,0],[0.5,0,0],[0.75,0,0],[1,0,0],[0,1,0],[0.25,1,0],[0.5,1,0],[0.75,1,0],[1,1,0],[0,0.25,0],[0,0.5,0],[0,0.75,0],[1,0.25,0],[1,0.5,0],[1,0.75,0]];outlineConnect=0;fontColor=#232F3E;gradientColor=#F78E04;gradientDirection=north;fillColor=#D05C17;strokeColor=#ffffff;dashed=0;verticalLabelPosition=bottom;verticalAlign=top;align=center;html=1;fontSize=12;fontStyle=0;aspect=fixed;shape=mxgraph.aws4.resourceIcon;resIcon=mxgraph.aws4.ec2;" vertex="1" parent="1">
          <mxGeometry x="95" y="420" width="50" height="50" as="geometry" />
        </mxCell>
        <mxCell id="lzMIn50TCi5RZ_wEebpy-11" style="edgeStyle=orthogonalEdgeStyle;rounded=0;orthogonalLoop=1;jettySize=auto;html=1;entryX=0;entryY=0.5;entryDx=0;entryDy=0;entryPerimeter=0;" edge="1" parent="1" source="lzMIn50TCi5RZ_wEebpy-12" target="lzMIn50TCi5RZ_wEebpy-3">
          <mxGeometry relative="1" as="geometry" />
        </mxCell>
        <mxCell id="lzMIn50TCi5RZ_wEebpy-12" value="" style="shape=image;verticalLabelPosition=bottom;labelBackgroundColor=default;verticalAlign=top;aspect=fixed;imageAspect=0;image=data:image/png,iVBORw0KGgoAAAANSUhEUgAAAEoAAABKCAYAAAAc0MJxAAAAAXNSR0IArs4c6QAAAIRlWElmTU0AKgAAAAgABQESAAMAAAABAAEAAAEaAAUAAAABAAAASgEbAAUAAAABAAAAUgEoAAMAAAABAAIAAIdpAAQAAAABAAAAWgAAAAAAAACQAAAAAQAAAJAAAAABAAOgAQADAAAAAQABAACgAgAEAAAAAQAAAEqgAwAEAAAAAQAAAEoAAAAALPVk3QAAAAlwSFlzAAAWJQAAFiUBSVIk8AAADupJREFUeAHtmwtwlNUVx8+3mwBJAC2tSsFHLaij+Ooooi1apUgIjzCjOLZTB6qoVaeKKAlvWB4CSXBQtNpalVGwTqtOJbwCRLA+C5TxNcoUg0AVWq2KYBIIIbn9nS97N99udje7G7KLM7nDcl/nnHvO/57v3vPd+0WkI3Ug0IFABwIdCHznEXCOFwsCI01ujiOD/SJnqU4NIh8fMlIZWOnUHg86ZhyoG8T4BxTKFCNS7DjSzQuKMfItCpZuLpcFL4gDdplLGQUq0M906tpXyjE/vxUI1lVXSWHgQ+dIK3Tt1u1rN8kJCM7rIw9CFgIJD/qosVEW60/LHhH5QVpPU3qLGfOo0hHmLJ9ftmMuy5IIwASKymWOiMNT6LY4ZYUyi8dxVlNdGhob5NziVc7HwXpas4x5lOOTX2KpBWltUbkzuxkkxcAxtAUAcG0QEX+QJ1hNb5YxoMSRi6ypgLHMllvkRpaH2jw8obY0FTIHlJG8kI2O7A+VIwrGka9DTV6eUGN6ChkDirXnM2siC2V/W47MvX1enki69q5nDKhGI+tDxjkyft4Qc1qoHiy4bfTZ9jAe25imPGO73u2XmOyzexMCONI3aOun7GpFtQ1Ni3euXwrYFcvoawLQSNWOvXLeE9uc+jRhEzZMxoBSLcpGmCvYyTYBVucwrSIrRuqONsigyaudtyK70lXP2KOnBjb6ZA9ZXQLG1jl+2Z0AXbuRZBQoBn8Yb+qu1hFl7iFM2EqxOvjbom3apzQurVvJzH8Ze/TKCs1wdrFVrtlGDAv1NcUrnb97YVhUaK6i/ipAuXoC5AiC0NVemnSVM+JRZUNMHqb/3mPk0kiQtG9iufMa2dIQHTwub6ghfYWMAGW6yGxc5Aw1Ey/5X3WdFMUyWfuURvtdnhwJxKJtz/Z2ASpwtcmacIXJiaZ46TBzMQaHYiNege8PrHOao+8IJu1TmlCzkXtVRqjuKeiYOran6ZgV3Wf/WEgrKTCnOlkylO1+KPIGI3j2xBXOYq/sgBhf11HyNm2XaTuespE15xdemljlRaNMJX2Wdkv1CrkiIE6jlx6aCdRnIreS3aGijt/0Vc5eL02q5ZTR10O3nDPlSoJCBWYowJwfpoSRAuphQOUVyl20uSBhSJ1plDvCeOJUCEbvZBLeZwPoojJcWeXyqJeFXVL1OBGa0Tyno5UQ8D4AuAoFruYTeSPVw7+kPGrBcPPjbPUYRwpQ6hoUan6xRSkU2o/ASqa5gv6KSeXOPmtISaHpxZnKdnibwgEjM/GmubY/kZydcgZjznFpjRzkbPhc7xjzRpjenXySjw4F0A2G7kSvXPSrYfyN5Gt5nCuKVjq7vP3xygkBxTZ9B4bfx+Duwb8VSFsjM7WNekVDg1RsWy2bY51tl40yLzLY9coL3/aaKrk42dlVL87rK+8i59ygnJeKVjijtRyZ9Cy+f6FcTrt6mf4uASSysLQDZRazu/4hrDVKJZIxCgmn+4XmFp8jT4V1GnmnvkFGT1ntfBLWHqVSOtKM8PlkpdtFzER+dXDrj0IdvykytuLYeCShRVM8Foe1tMD0cTqJTlbYRsDjfyueFW5bFDkJARUoMN3zsuVzPEof+1DC4q9w49JaI4/GulZy454u8hG8p7uMRp4GpHEhISkUAOspfOMWZUWHPXJI+hWtd2qiidJrsFxHfsf4xRj7fS8Nuh9uqJWekyudA972aOWEwoPAWucgA62IFKAD42klXR35BK8bz9YcBqTSN3aRE8iqtIxicWMmpUkkeWMrkNoZHCOMVXVRnVQ31TESpCBxeSIgKW1CHqWE3scHg6fCOQ7mPtoXSkb2spA/ULVXnow8DikdZcYwK7WEDC+G6NtQYDcbzVi5xSucZ71idB3L7SPjGGsaOvb29uF9OwH2KSZ9vrYn+tgqbcJAaSCX1132MchJDFBU+608RP1mZEynremxUolNaTfvbnNrD8qzgVedo7axPXPVL7e7jEGXmRh1hncsJvbf1OfVHJSlud3kXtbLMgD7kvOtXpET6uXzlhMGSpmYxSVkdzPw+2ztF2mbO4N95Ta226ko2UvbQonDNrbwwKFyeT4yOAzRtLEQIIjNKZRf+RmHae/rFYee+zhzn19bJX+yOywhxnvoeSF9j2LD3V76eOWkgCoZYS7z+2WzCmSgixjofStc1wQ87C6UnYTQk227S0s4AP2s4nLhsQPSY5KMU1ooozF6NuO54YIVywBf4DEleNBjePRh2w5IF0L/ntYJZwZMWuVssX2t5UkBpcLwqn+RnY0yi4hhWrzMBne5e1BoInQ9lCeUjLyHh80kSNRr9JQTwWshHjSHSXG92iPoayZkkRyWJdF2QWK5MgxWvXawVp7j4Wu1mDxQhWY6Cs5FoX015XJarEcqGFJMgHYCg+jOF0rwbm1wZMbkFc66UGMChYWjTL6ftY9J6O8lZ9IO4EGLa+plse7Q3j5b1keU155P4e3F+Em/FSQNVNlIcyaD7QQAfYauxav0ZTVm4rXne1l+KYJH14OuXkIUfpOdawYetsnbHlnGg65hF1OAfhbRV42MRzhPLyPw3R/RF1bFm/RFfQOAGnj6JPP6ooKSBkqZCPheh3MgAz7LOjVW2zQRtyzCoG5E7JMjFZ9fYE7KzpbJGHsnpDkuQ/A/5GxkzZgReXmwcLj5KWuiAjTIS0/5EDyP19fLwqlrHfesyvbrxGT7ZSGL+EHv0sD69AxyxgDUGwS8V1r6RPNUTw+W4U0XMEjoHGlBofkJgd29tPlRdNTCkeayySsd3ZbdFDTo/gfyzaJOnd047HZmqZN2KhBZWTIIYyrUw7Qt6EFDtWwTYx7B0CeO1Mn8aeuc/9h2mzPm6VmObGEST0F2A+dWzxWvcd7Vfur74T9AvszSJ5PDl3zSHe6rHDGPrHXcG5Tg8/8PDHbXDma7Ek+7Np5kvdzs3MUF5Wb44k4Y8jQWW1p3WOZOX+98Gk8uYG9A3mClgW8r6+jldh1VvbXduxNqPZGUElCRgona7yaIW6LtKHcYqy6YUu5URdJFq+vRDWvYTIy7iX42s7DUgLzlrEFzEnn5Vk48uy+of4A8FxSC43t4aX4kTGoKlTYDpWdAnX2yHcW66fi493TWhgeS1YUF+xxQelLXPpeXtYRQ4lYWeg1Hkkos3NMwbJ7LxLnV4UY5r60nnSwFbUuAtMQDkp4zlaUiUQEB5Fcsr5ZTAUn5VQf49SM1XZy6q45uuQ3/tQkorsRHAtJ17vi67R6V39pXhTbo1GZW1UF10VBAhamOqmtbBKcMlBuB+zxn1hzsFa92Xm+LMseS19XFe9iIrm25E0wZKJbKOcyUe2rAtH1RfVgmHUtDj4Us1Ul1U1muruicqtyUgNKYiYHH20E5Urkv3t2cpUt3rjqpbnZc1Vl1t/Vk8rjxiwp6oNCcAtFgn5FTmZ1a3lv+SbMuju5WzvZdyaL7nNIej0l1I7b6DSANRj8/tvyR9Wo8kful7Iy5jXz5RzhTOa3c+Tye/jGB4qz5B3kO34ET3yDQp6Et/8JSMGbSV5LjOgHEnVmmKbYCsP5M8VvWFp1tHqtGwFxWY2QiZ/9fRjMm6qO3aJg5A5C2IHSMC1I0Tm1zZEOigWUsEelod3VE11hjqY3YOlZtVtuj0bUASu/DTLa8DOOZlgHP2chjV6LvWXZx1D4GGKln15bueM15Wb9BdbX6uTY02VKittl2tVltVwxsm81bPHpcGo5FqHv3pY8W917X89cCaywD70v3550gf4FmmLZBU4rgv8W6+LR8mcrVaF7WS+34gLSm5oDcyPtetW3jryiGcV3/EkB1UdsVgxfK5Wnbr3kLoCD8tSVA6CwvSNquAwDWjYC1E9qTdRb466jbLhX35NOyJpw3HpFdUyqc3fEY9AyMRfdH8Whi9eEaepLp8qonRYKkfGojXjcLe0q0Tq4YxAcKqtDxan1d9CMJBYvFbwW0t6lg8sdb+Krb0fp/vk4yG6pAXErWD3/z38TEJY3XyY79steTvLSAuJy6C5QXA0vTYo1iHQp9eAFQsU8NvX9RYKUd5zkhQUx7Dh1sPlvzYmBNivbofUZnXyXIzXPPl163xGG5oQ8fdROXBuShQ7xga0IZIna1RujSGD6zTi31CHmI6hwjBW11exlPMQhLLYAC9fUQukDx7dN8PpwfFHlJ6C5+zcezDZze5bcWsIWNmmSFo9tnYNFf0kkD5s4ie2H0s54OUt0j11394wA+z15ghSsGtmzzFkBxDv1wdpbcjtAsZmLgWb1lU2lPM6W2RrbmdJcegKgB6GwrgF1veXuCZMdJNVfdWE+XY89YlaG7my7cuibp46aepCDR715cYM9RdvqHIsdrsUZNXePsAIjJllAF+LLkta4nyCEW1L3uBw/NX7XsrqlrfpeyPK3lC0eY0IbRGm1kfyq8QR13qyzs6aI2qC1qk9pmQXL7sR2P+1jL3tQCKO3E1R9kQZuo6HqJw8p8H3W0UX6e7Muw3tRw9LuNm5ymc6wwofErHDlfr7wqIz5leK+rY71cjU3vhPc011xbsdm1vbk5VIoKlPYqQ/1R6YeLPsYAVfz0IuEb8k28kY/jA4cB3luWkMQ4Bf1ql9nUqyI/68DzetcWhzysy72X88mflRePHxjrq+MwJk9l4hpnj+qsuqsNdKktdfyq1EYet/NigaRiGDO9KZBvenTtLK8xcj9GrkbJwZyxb1YtWEsCPAaztMwMz+YmJ6BlQBqAQa/Ql0f+Id9HXZWsJ6uctqSYHtUWofF41UAuDYYAxC7o+M5L1nAfp6BFTWXDzflKoyApj/KmGyRVLO0eZdFwv6nMljcAoCcA7MNTBqLNWK9H0fYMu9Sb8PwQmv+aehlYvNbZaWWkM0+7R1njggbnU/8GcHpxKLQBoHrafi3TXkldQdrfcFSGZAok1SljHmUBCX5foLe7ubbNmwNSDR9pX1u0ynnb257ucsY8yhqqH2bwCZCGCvW2zeYs9EcA6rpMg6T6ZBwoVUK/k2J7vglgGrWuScuAdBPX4S1eJ5oo0vv/cQGUmsz3Sn/lGKT5/N3IHcXlzgvpheM7NBqHdJOIvIu/Qyp3qNqBQAcCHQhkHIH/AwxOZthbi6SjAAAAAElFTkSuQmCC;" vertex="1" parent="1">
          <mxGeometry x="206" y="423" width="44" height="44" as="geometry" />
        </mxCell>
        <mxCell id="lzMIn50TCi5RZ_wEebpy-13" style="edgeStyle=orthogonalEdgeStyle;rounded=0;orthogonalLoop=1;jettySize=auto;html=1;entryX=0;entryY=0.5;entryDx=0;entryDy=0;entryPerimeter=0;" edge="1" parent="1" target="lzMIn50TCi5RZ_wEebpy-17">
          <mxGeometry relative="1" as="geometry">
            <mxPoint x="408" y="445" as="sourcePoint" />
            <mxPoint x="562" y="445" as="targetPoint" />
          </mxGeometry>
        </mxCell>
        <mxCell id="lzMIn50TCi5RZ_wEebpy-14" value="" style="shape=image;verticalLabelPosition=bottom;labelBackgroundColor=default;verticalAlign=top;aspect=fixed;imageAspect=0;image=data:image/png,iVBORw0KGgoAAAANSUhEUgAAAEoAAABKCAYAAAAc0MJxAAAAAXNSR0IArs4c6QAAAIRlWElmTU0AKgAAAAgABQESAAMAAAABAAEAAAEaAAUAAAABAAAASgEbAAUAAAABAAAAUgEoAAMAAAABAAIAAIdpAAQAAAABAAAAWgAAAAAAAACQAAAAAQAAAJAAAAABAAOgAQADAAAAAQABAACgAgAEAAAAAQAAAEqgAwAEAAAAAQAAAEoAAAAALPVk3QAAAAlwSFlzAAAWJQAAFiUBSVIk8AAADupJREFUeAHtmwtwlNUVx8+3mwBJAC2tSsFHLaij+Ooooi1apUgIjzCjOLZTB6qoVaeKKAlvWB4CSXBQtNpalVGwTqtOJbwCRLA+C5TxNcoUg0AVWq2KYBIIIbn9nS97N99udje7G7KLM7nDcl/nnHvO/57v3vPd+0WkI3Ug0IFABwIdCHznEXCOFwsCI01ujiOD/SJnqU4NIh8fMlIZWOnUHg86ZhyoG8T4BxTKFCNS7DjSzQuKMfItCpZuLpcFL4gDdplLGQUq0M906tpXyjE/vxUI1lVXSWHgQ+dIK3Tt1u1rN8kJCM7rIw9CFgIJD/qosVEW60/LHhH5QVpPU3qLGfOo0hHmLJ9ftmMuy5IIwASKymWOiMNT6LY4ZYUyi8dxVlNdGhob5NziVc7HwXpas4x5lOOTX2KpBWltUbkzuxkkxcAxtAUAcG0QEX+QJ1hNb5YxoMSRi6ypgLHMllvkRpaH2jw8obY0FTIHlJG8kI2O7A+VIwrGka9DTV6eUGN6ChkDirXnM2siC2V/W47MvX1enki69q5nDKhGI+tDxjkyft4Qc1qoHiy4bfTZ9jAe25imPGO73u2XmOyzexMCONI3aOun7GpFtQ1Ni3euXwrYFcvoawLQSNWOvXLeE9uc+jRhEzZMxoBSLcpGmCvYyTYBVucwrSIrRuqONsigyaudtyK70lXP2KOnBjb6ZA9ZXQLG1jl+2Z0AXbuRZBQoBn8Yb+qu1hFl7iFM2EqxOvjbom3apzQurVvJzH8Ze/TKCs1wdrFVrtlGDAv1NcUrnb97YVhUaK6i/ipAuXoC5AiC0NVemnSVM+JRZUNMHqb/3mPk0kiQtG9iufMa2dIQHTwub6ghfYWMAGW6yGxc5Aw1Ey/5X3WdFMUyWfuURvtdnhwJxKJtz/Z2ASpwtcmacIXJiaZ46TBzMQaHYiNege8PrHOao+8IJu1TmlCzkXtVRqjuKeiYOran6ZgV3Wf/WEgrKTCnOlkylO1+KPIGI3j2xBXOYq/sgBhf11HyNm2XaTuespE15xdemljlRaNMJX2Wdkv1CrkiIE6jlx6aCdRnIreS3aGijt/0Vc5eL02q5ZTR10O3nDPlSoJCBWYowJwfpoSRAuphQOUVyl20uSBhSJ1plDvCeOJUCEbvZBLeZwPoojJcWeXyqJeFXVL1OBGa0Tyno5UQ8D4AuAoFruYTeSPVw7+kPGrBcPPjbPUYRwpQ6hoUan6xRSkU2o/ASqa5gv6KSeXOPmtISaHpxZnKdnibwgEjM/GmubY/kZydcgZjznFpjRzkbPhc7xjzRpjenXySjw4F0A2G7kSvXPSrYfyN5Gt5nCuKVjq7vP3xygkBxTZ9B4bfx+Duwb8VSFsjM7WNekVDg1RsWy2bY51tl40yLzLY9coL3/aaKrk42dlVL87rK+8i59ygnJeKVjijtRyZ9Cy+f6FcTrt6mf4uASSysLQDZRazu/4hrDVKJZIxCgmn+4XmFp8jT4V1GnmnvkFGT1ntfBLWHqVSOtKM8PlkpdtFzER+dXDrj0IdvykytuLYeCShRVM8Foe1tMD0cTqJTlbYRsDjfyueFW5bFDkJARUoMN3zsuVzPEof+1DC4q9w49JaI4/GulZy454u8hG8p7uMRp4GpHEhISkUAOspfOMWZUWHPXJI+hWtd2qiidJrsFxHfsf4xRj7fS8Nuh9uqJWekyudA972aOWEwoPAWucgA62IFKAD42klXR35BK8bz9YcBqTSN3aRE8iqtIxicWMmpUkkeWMrkNoZHCOMVXVRnVQ31TESpCBxeSIgKW1CHqWE3scHg6fCOQ7mPtoXSkb2spA/ULVXnow8DikdZcYwK7WEDC+G6NtQYDcbzVi5xSucZ71idB3L7SPjGGsaOvb29uF9OwH2KSZ9vrYn+tgqbcJAaSCX1132MchJDFBU+608RP1mZEynremxUolNaTfvbnNrD8qzgVedo7axPXPVL7e7jEGXmRh1hncsJvbf1OfVHJSlud3kXtbLMgD7kvOtXpET6uXzlhMGSpmYxSVkdzPw+2ztF2mbO4N95Ta226ko2UvbQonDNrbwwKFyeT4yOAzRtLEQIIjNKZRf+RmHae/rFYee+zhzn19bJX+yOywhxnvoeSF9j2LD3V76eOWkgCoZYS7z+2WzCmSgixjofStc1wQ87C6UnYTQk227S0s4AP2s4nLhsQPSY5KMU1ooozF6NuO54YIVywBf4DEleNBjePRh2w5IF0L/ntYJZwZMWuVssX2t5UkBpcLwqn+RnY0yi4hhWrzMBne5e1BoInQ9lCeUjLyHh80kSNRr9JQTwWshHjSHSXG92iPoayZkkRyWJdF2QWK5MgxWvXawVp7j4Wu1mDxQhWY6Cs5FoX015XJarEcqGFJMgHYCg+jOF0rwbm1wZMbkFc66UGMChYWjTL6ftY9J6O8lZ9IO4EGLa+plse7Q3j5b1keU155P4e3F+Em/FSQNVNlIcyaD7QQAfYauxav0ZTVm4rXne1l+KYJH14OuXkIUfpOdawYetsnbHlnGg65hF1OAfhbRV42MRzhPLyPw3R/RF1bFm/RFfQOAGnj6JPP6ooKSBkqZCPheh3MgAz7LOjVW2zQRtyzCoG5E7JMjFZ9fYE7KzpbJGHsnpDkuQ/A/5GxkzZgReXmwcLj5KWuiAjTIS0/5EDyP19fLwqlrHfesyvbrxGT7ZSGL+EHv0sD69AxyxgDUGwS8V1r6RPNUTw+W4U0XMEjoHGlBofkJgd29tPlRdNTCkeayySsd3ZbdFDTo/gfyzaJOnd047HZmqZN2KhBZWTIIYyrUw7Qt6EFDtWwTYx7B0CeO1Mn8aeuc/9h2mzPm6VmObGEST0F2A+dWzxWvcd7Vfur74T9AvszSJ5PDl3zSHe6rHDGPrHXcG5Tg8/8PDHbXDma7Ek+7Np5kvdzs3MUF5Wb44k4Y8jQWW1p3WOZOX+98Gk8uYG9A3mClgW8r6+jldh1VvbXduxNqPZGUElCRgona7yaIW6LtKHcYqy6YUu5URdJFq+vRDWvYTIy7iX42s7DUgLzlrEFzEnn5Vk48uy+of4A8FxSC43t4aX4kTGoKlTYDpWdAnX2yHcW66fi493TWhgeS1YUF+xxQelLXPpeXtYRQ4lYWeg1Hkkos3NMwbJ7LxLnV4UY5r60nnSwFbUuAtMQDkp4zlaUiUQEB5Fcsr5ZTAUn5VQf49SM1XZy6q45uuQ3/tQkorsRHAtJ17vi67R6V39pXhTbo1GZW1UF10VBAhamOqmtbBKcMlBuB+zxn1hzsFa92Xm+LMseS19XFe9iIrm25E0wZKJbKOcyUe2rAtH1RfVgmHUtDj4Us1Ul1U1muruicqtyUgNKYiYHH20E5Urkv3t2cpUt3rjqpbnZc1Vl1t/Vk8rjxiwp6oNCcAtFgn5FTmZ1a3lv+SbMuju5WzvZdyaL7nNIej0l1I7b6DSANRj8/tvyR9Wo8kful7Iy5jXz5RzhTOa3c+Tye/jGB4qz5B3kO34ET3yDQp6Et/8JSMGbSV5LjOgHEnVmmKbYCsP5M8VvWFp1tHqtGwFxWY2QiZ/9fRjMm6qO3aJg5A5C2IHSMC1I0Tm1zZEOigWUsEelod3VE11hjqY3YOlZtVtuj0bUASu/DTLa8DOOZlgHP2chjV6LvWXZx1D4GGKln15bueM15Wb9BdbX6uTY02VKittl2tVltVwxsm81bPHpcGo5FqHv3pY8W917X89cCaywD70v3550gf4FmmLZBU4rgv8W6+LR8mcrVaF7WS+34gLSm5oDcyPtetW3jryiGcV3/EkB1UdsVgxfK5Wnbr3kLoCD8tSVA6CwvSNquAwDWjYC1E9qTdRb466jbLhX35NOyJpw3HpFdUyqc3fEY9AyMRfdH8Whi9eEaepLp8qonRYKkfGojXjcLe0q0Tq4YxAcKqtDxan1d9CMJBYvFbwW0t6lg8sdb+Krb0fp/vk4yG6pAXErWD3/z38TEJY3XyY79steTvLSAuJy6C5QXA0vTYo1iHQp9eAFQsU8NvX9RYKUd5zkhQUx7Dh1sPlvzYmBNivbofUZnXyXIzXPPl163xGG5oQ8fdROXBuShQ7xga0IZIna1RujSGD6zTi31CHmI6hwjBW11exlPMQhLLYAC9fUQukDx7dN8PpwfFHlJ6C5+zcezDZze5bcWsIWNmmSFo9tnYNFf0kkD5s4ie2H0s54OUt0j11394wA+z15ghSsGtmzzFkBxDv1wdpbcjtAsZmLgWb1lU2lPM6W2RrbmdJcegKgB6GwrgF1veXuCZMdJNVfdWE+XY89YlaG7my7cuibp46aepCDR715cYM9RdvqHIsdrsUZNXePsAIjJllAF+LLkta4nyCEW1L3uBw/NX7XsrqlrfpeyPK3lC0eY0IbRGm1kfyq8QR13qyzs6aI2qC1qk9pmQXL7sR2P+1jL3tQCKO3E1R9kQZuo6HqJw8p8H3W0UX6e7Muw3tRw9LuNm5ymc6wwofErHDlfr7wqIz5leK+rY71cjU3vhPc011xbsdm1vbk5VIoKlPYqQ/1R6YeLPsYAVfz0IuEb8k28kY/jA4cB3luWkMQ4Bf1ql9nUqyI/68DzetcWhzysy72X88mflRePHxjrq+MwJk9l4hpnj+qsuqsNdKktdfyq1EYet/NigaRiGDO9KZBvenTtLK8xcj9GrkbJwZyxb1YtWEsCPAaztMwMz+YmJ6BlQBqAQa/Ql0f+Id9HXZWsJ6uctqSYHtUWofF41UAuDYYAxC7o+M5L1nAfp6BFTWXDzflKoyApj/KmGyRVLO0eZdFwv6nMljcAoCcA7MNTBqLNWK9H0fYMu9Sb8PwQmv+aehlYvNbZaWWkM0+7R1njggbnU/8GcHpxKLQBoHrafi3TXkldQdrfcFSGZAok1SljHmUBCX5foLe7ubbNmwNSDR9pX1u0ynnb257ucsY8yhqqH2bwCZCGCvW2zeYs9EcA6rpMg6T6ZBwoVUK/k2J7vglgGrWuScuAdBPX4S1eJ5oo0vv/cQGUmsz3Sn/lGKT5/N3IHcXlzgvpheM7NBqHdJOIvIu/Qyp3qNqBQAcCHQhkHIH/AwxOZthbi6SjAAAAAElFTkSuQmCC;" vertex="1" parent="1">
          <mxGeometry x="360" y="423" width="44" height="44" as="geometry" />
        </mxCell>
        <mxCell id="lzMIn50TCi5RZ_wEebpy-15" style="edgeStyle=orthogonalEdgeStyle;rounded=0;orthogonalLoop=1;jettySize=auto;html=1;entryX=0;entryY=0.5;entryDx=0;entryDy=0;" edge="1" parent="1" source="lzMIn50TCi5RZ_wEebpy-3" target="lzMIn50TCi5RZ_wEebpy-14">
          <mxGeometry relative="1" as="geometry" />
        </mxCell>
        <mxCell id="lzMIn50TCi5RZ_wEebpy-17" value="S3" style="sketch=0;points=[[0,0,0],[0.25,0,0],[0.5,0,0],[0.75,0,0],[1,0,0],[0,1,0],[0.25,1,0],[0.5,1,0],[0.75,1,0],[1,1,0],[0,0.25,0],[0,0.5,0],[0,0.75,0],[1,0.25,0],[1,0.5,0],[1,0.75,0]];outlineConnect=0;fontColor=#232F3E;gradientColor=#60A337;gradientDirection=north;fillColor=#277116;strokeColor=#ffffff;dashed=0;verticalLabelPosition=bottom;verticalAlign=top;align=center;html=1;fontSize=12;fontStyle=0;aspect=fixed;shape=mxgraph.aws4.resourceIcon;resIcon=mxgraph.aws4.s3;" vertex="1" parent="1">
          <mxGeometry x="525" y="411" width="69" height="69" as="geometry" />
        </mxCell>
      </root>
    </mxGraphModel>
  </diagram>
</mxfile>
